<svg version="1.1" xmlns="http://www.w3.org/2000/svg" style="display: block;" viewBox="0 0 2048 1536" width="1024" height="768">
<defs>
	<linearGradient id="Gradient1" gradientUnits="userSpaceOnUse" x1="942.835" y1="1182.81" x2="977.082" y2="1160.88">
		<stop class="stop0" offset="0" stop-opacity="1" stop-color="rgb(61,122,169)"/>
		<stop class="stop1" offset="1" stop-opacity="1" stop-color="rgb(91,149,196)"/>
	</linearGradient>
	<linearGradient id="Gradient2" gradientUnits="userSpaceOnUse" x1="1413.47" y1="716.793" x2="1524.37" y2="738.105">
		<stop class="stop0" offset="0" stop-opacity="1" stop-color="rgb(158,132,34)"/>
		<stop class="stop1" offset="1" stop-opacity="1" stop-color="rgb(208,169,40)"/>
	</linearGradient>
	<linearGradient id="Gradient3" gradientUnits="userSpaceOnUse" x1="1554.14" y1="826.297" x2="1082.27" y2="597.483">
		<stop class="stop0" offset="0" stop-opacity="1" stop-color="rgb(35,70,102)"/>
		<stop class="stop1" offset="1" stop-opacity="1" stop-color="rgb(51,95,132)"/>
	</linearGradient>
</defs>
<path transform="translate(0,0)" fill="rgb(255,255,255)" d="M -0 -0 L 2048 0 L 2048 1536 L -0 1536 L -0 -0 z"/>
<path transform="translate(0,0)" fill="rgb(178,187,138)" d="M 283.664 1193.15 C 291.09 1193.08 294.55 1192.04 301.077 1188.38 L 302.193 1195.86 C 304.145 1199.73 305.312 1202.36 309.009 1204.81 C 318.775 1211.29 324.918 1222.03 334.178 1229.36 L 334.928 1229.79 C 338.871 1231.96 346.495 1232.77 348.848 1236 C 348.416 1238.71 346.646 1240.55 344.5 1242.2 C 343.455 1243.01 342.225 1243.61 341.039 1244.17 L 312.67 1248.59 C 307.8 1249.3 302.386 1250.65 297.5 1249.78 C 293.365 1244.48 292.543 1236.25 291.177 1229.74 L 283.896 1195.4 L 283.664 1193.15 z"/>
<path transform="translate(0,0)" fill="rgb(165,170,106)" d="M 283.664 1193.15 C 291.09 1193.08 294.55 1192.04 301.077 1188.38 L 302.193 1195.86 C 300.359 1197.94 299.785 1199.35 297 1199.87 C 295.399 1197.77 293.781 1196.32 291.71 1194.7 C 289.201 1195.5 286.519 1195.33 283.896 1195.4 L 283.664 1193.15 z"/>
<path transform="translate(0,0)" fill="rgb(208,177,64)" d="M 319.714 1180.37 L 325.076 1183.27 L 333.916 1180.4 L 328.527 1185.13 C 331.642 1187.98 335.479 1190.88 339.298 1192.69 C 349.533 1197.56 359.354 1204.18 370.497 1206.83 L 373.672 1207.98 C 390.83 1214.78 409.442 1220.18 427.022 1226 C 432.419 1227.79 440.442 1228.7 444.631 1232.36 L 445.495 1233.1 L 446 1233.59 C 448.326 1233.66 452.298 1233.23 454.163 1234.7 L 341.039 1244.17 C 342.225 1243.61 343.455 1243.01 344.5 1242.2 C 346.646 1240.55 348.416 1238.71 348.848 1236 C 346.495 1232.77 338.871 1231.96 334.928 1229.79 L 334.178 1229.36 C 324.918 1222.03 318.775 1211.29 309.009 1204.81 C 305.312 1202.36 304.145 1199.73 302.193 1195.86 L 301.077 1188.38 C 306.808 1184.48 312.87 1181.62 319.714 1180.37 z"/>
<path transform="translate(0,0)" fill="rgb(208,177,64)" d="M 258.823 1030.31 C 262.415 1027.78 266.376 1024.35 270.5 1022.89 C 271.055 1025.65 270.755 1027.19 269.922 1029.86 C 265.68 1054.13 261.117 1078.71 260.129 1103.34 L 259.749 1127.24 L 110.532 1058.46 L 189.086 1039.17 C 191.195 1041.27 192.415 1042.05 195.32 1042.76 C 198.876 1040.66 203.956 1040.46 208 1039.79 L 239.219 1034.49 C 245.965 1033.22 251.879 1030.96 258.823 1030.31 z"/>
<path transform="translate(0,0)" fill="rgb(188,182,171)" d="M 258.823 1030.31 C 262.415 1027.78 266.376 1024.35 270.5 1022.89 C 271.055 1025.65 270.755 1027.19 269.922 1029.86 C 262.811 1030.13 256.017 1036.2 251.438 1041.16 C 243.656 1049.58 233.957 1061.34 221 1060.94 C 220.062 1060.92 219.942 1060.81 219.188 1060.5 C 218.784 1056.99 219.316 1053.49 219.671 1049.99 C 225.484 1049.48 232.789 1049.47 238.287 1047.44 C 246.095 1044.57 253.046 1036.12 258.823 1030.31 z"/>
<path transform="translate(0,0)" fill="rgb(73,141,190)" d="M 195.32 1042.76 C 198.876 1040.66 203.956 1040.46 208 1039.79 L 239.219 1034.49 C 245.965 1033.22 251.879 1030.96 258.823 1030.31 C 253.046 1036.12 246.095 1044.57 238.287 1047.44 C 232.789 1049.47 225.484 1049.48 219.671 1049.99 C 211.295 1048.97 203.031 1046.09 195.32 1042.76 z"/>
<path transform="translate(0,0)" fill="rgb(208,177,64)" d="M 103.131 601.999 L 140.836 602.376 C 139.817 607.345 136.7 616.87 138.5 621.514 L 141.435 622.849 C 148.583 626.218 155.144 631.327 161.657 635.776 C 169.944 641.437 178.535 646.862 186.475 652.988 L 177.703 697.002 L 171.445 742.443 C 169.126 759.056 166.005 776.843 168.12 793.57 C 169.842 807.186 174.724 819.966 181.255 831.962 L 181.467 911.002 C 169.021 895.291 153.106 881.156 138.863 867.001 L 78.2571 807.171 L 44.3547 778.4 C 44.5748 770.446 49.5592 760.55 52.3311 753.003 L 74.9946 693.026 L 92.3613 640.312 C 96.1081 627.641 97.6809 614.015 103.131 601.999 z"/>
<path transform="translate(0,0)" fill="rgb(92,155,200)" d="M 119.208 651.14 C 125.945 653.015 131.201 655.034 138.287 655.317 L 139.509 655.393 C 138.673 663.917 138.857 672.952 139.342 681.5 C 139.509 684.453 140.612 687.893 140.172 690.783 C 139.883 692.685 138.935 694.309 137.826 695.837 C 136.122 695.119 134.267 695.616 132.5 695.921 C 130.274 696.305 127.964 696.882 125.691 696.555 C 119.14 695.611 110.823 691.301 106.93 685.874 C 103.585 681.211 104.018 674.309 105.124 668.889 C 107.028 659.557 111.804 656.208 119.208 651.14 z"/>
<path transform="translate(0,0)" fill="rgb(73,141,190)" d="M 103.131 601.999 L 140.836 602.376 C 139.817 607.345 136.7 616.87 138.5 621.514 L 141.435 622.849 C 141.18 633.649 141.373 644.739 139.509 655.393 L 138.287 655.317 C 131.201 655.034 125.945 653.015 119.208 651.14 C 110.525 649.185 100.954 643.52 92.3613 640.312 C 96.1081 627.641 97.6809 614.015 103.131 601.999 z"/>
<path transform="translate(0,0)" fill="rgb(71,104,141)" d="M 209.749 383.879 L 238.692 324.995 L 276.327 324.815 C 285.706 324.558 297.88 322.381 306.916 324.222 C 313.387 325.541 319.869 328.748 325.932 331.335 L 314.92 401.811 C 313.882 403.417 312.938 404.931 311.542 406.261 C 325.715 420.298 350.752 420.27 367.229 432.495 C 373.854 436.083 379.125 440.081 385.006 444.713 C 395.723 454.987 406.233 464.894 414.417 477.403 C 422.794 490.207 427.098 503.944 431.911 518.302 C 434.95 527.369 439.101 536.244 441.682 545.427 C 446.767 563.52 448.589 585.942 449.067 604.696 L 449.074 605.335 C 444.401 603.657 439.933 601.117 435.252 599.32 C 425.911 595.734 416.306 593.084 406.574 590.795 L 413.111 618.937 C 413.324 622.739 413.387 625.89 412.661 629.655 L 409.069 670.168 C 412.3 718.779 409.604 767.746 411.282 816.45 C 411.533 823.715 410.466 835.53 412.772 842.269 C 415.377 850.316 415.259 855.631 411.314 863.314 L 406.678 870.981 C 410.487 881.185 413.163 895.339 409.402 906.017 L 409.047 906.736 C 398.112 919.162 391.338 934.229 382.325 948.003 C 369.491 967.617 354.762 986.815 340.276 1005.24 C 330.745 1017.37 319.752 1028.34 308.576 1038.94 C 300.214 1046.87 291.218 1054.41 284.179 1063.6 C 279.16 1070.15 274.874 1077.11 270.847 1084.31 C 267.914 1089.55 264.918 1100.08 260.129 1103.34 C 261.117 1078.71 265.68 1054.13 269.922 1029.86 C 270.755 1027.19 271.055 1025.65 270.5 1022.89 C 266.376 1024.35 262.415 1027.78 258.823 1030.31 C 251.879 1030.96 245.965 1033.22 239.219 1034.49 L 208 1039.79 C 203.956 1040.46 198.876 1040.66 195.32 1042.76 C 192.415 1042.05 191.195 1041.27 189.086 1039.17 L 190.653 1037.71 C 190.914 1032.62 186.335 1027.2 186.021 1021.5 C 185.196 1006.5 186.249 991.413 185.858 976.398 L 181.467 911.002 L 181.255 831.962 C 174.724 819.966 169.842 807.186 168.12 793.57 C 166.005 776.843 169.126 759.056 171.445 742.443 L 177.703 697.002 L 186.475 652.988 C 178.535 646.862 169.944 641.437 161.657 635.776 C 155.144 631.327 148.583 626.218 141.435 622.849 L 138.5 621.514 C 136.7 616.87 139.817 607.345 140.836 602.376 L 103.131 601.999 L 209.749 383.879 z"/>
<path transform="translate(0,0)" fill="rgb(255,255,255)" d="M 311.542 406.261 C 325.715 420.298 350.752 420.27 367.229 432.495 C 360.397 436.491 353.759 435.149 346.173 434.452 C 336.727 433.584 307.146 432.558 301.271 425.5 L 305.815 420.459 C 308.77 416.653 310.04 410.839 311.542 406.261 z"/>
<path transform="translate(0,0)" fill="rgb(208,177,64)" d="M 209.749 383.879 L 238.692 324.995 L 276.327 324.815 C 285.706 324.558 297.88 322.381 306.916 324.222 C 313.387 325.541 319.869 328.748 325.932 331.335 L 314.92 401.811 C 313.882 403.417 312.938 404.931 311.542 406.261 C 310.04 410.839 308.77 416.653 305.815 420.459 C 299.866 424.058 294.753 423.254 288.5 425.215 C 283.394 426.816 279.992 431.503 275.5 432.891 C 269.752 434.667 263.427 435.176 257.558 436.653 C 245.595 439.663 235.802 443.932 225.648 450.946 L 215.098 409.011 C 213.575 402.306 213.406 390.858 210.377 385.018 L 209.749 383.879 z"/>
<path transform="translate(0,0)" fill="rgb(255,255,255)" d="M 250.017 669.238 C 244.592 668.722 235.744 663.161 231.512 659.919 C 233.991 647.917 237.561 636.43 240.809 624.631 C 244.55 611.038 246.788 596.219 255.826 584.986 C 259.421 580.518 263.339 577.507 269.07 576.897 C 283.33 575.378 298.618 576.789 313 576.706 L 360.516 576.142 C 368.362 576.261 377.193 576.17 384.885 577.831 C 392.337 579.441 399.367 583.921 405.255 588.623 L 406.574 590.795 L 413.111 618.937 C 413.324 622.739 413.387 625.89 412.661 629.655 L 409.069 670.168 C 412.3 718.779 409.604 767.746 411.282 816.45 C 411.533 823.715 410.466 835.53 412.772 842.269 C 368.045 860.022 311.426 863.854 265.736 847.255 L 264.846 846.714 C 257.156 842.228 253.61 836.924 249.534 829.096 C 247.906 823.553 248.804 818.531 248.997 812.882 L 249.599 787.607 L 251.097 672.7 L 250.017 669.238 z"/>
<path transform="translate(0,0)" fill="rgb(195,120,77)" d="M 250.017 669.238 L 288.5 678.978 C 290.479 679.382 300.113 680.653 301.023 681.555 L 301.857 685.615 C 295.286 685.021 288.42 683.184 281.933 681.866 L 251.097 672.7 L 250.017 669.238 z"/>
<path transform="translate(0,0)" fill="rgb(198,77,54)" d="M 301.023 681.555 L 335 685.969 C 340.517 686.533 348.676 686.061 353.585 688.5 L 353.5 689.892 C 351.433 691.286 349.678 692.747 347.111 692.961 C 340.369 690.749 332.999 690.952 326 689.937 L 301.857 685.615 L 301.023 681.555 z"/>
<path transform="translate(0,0)" fill="rgb(222,212,207)" d="M 281.933 681.866 C 288.42 683.184 295.286 685.021 301.857 685.615 L 326 689.937 C 332.999 690.952 340.369 690.749 347.111 692.961 C 333.831 696.975 316.327 694.558 302.575 694.14 C 295.769 693.932 286.622 694.62 280.201 692.5 C 279.62 688.622 280.784 685.501 281.933 681.866 z"/>
<path transform="translate(0,0)" fill="rgb(71,104,141)" d="M 405.255 588.623 L 406.574 590.795 L 413.111 618.937 C 413.324 622.739 413.387 625.89 412.661 629.655 L 409.069 670.168 C 406.989 664.707 409.127 657.652 407.004 652.517 C 405.964 650 403.612 650.712 402.138 648.142 L 394.42 622.067 C 393.618 618.969 391.942 615.101 391.637 611.989 C 391.35 609.076 394.71 601.311 396.032 598.414 C 397.826 594.481 400.086 590.953 404.29 589.403 L 405.255 588.623 z"/>
<path transform="translate(0,0)" fill="rgb(222,212,207)" d="M 405.255 588.623 L 406.574 590.795 L 413.111 618.937 C 413.324 622.739 413.387 625.89 412.661 629.655 L 409.069 670.168 C 406.989 664.707 409.127 657.652 407.004 652.517 C 405.964 650 403.612 650.712 402.138 648.142 L 403.264 646.199 C 404.754 642.35 404.372 635.96 404.62 631.796 C 405.358 619.4 408.482 600.947 404.29 589.403 L 405.255 588.623 z"/>
<path transform="translate(0,0)" fill="rgb(198,77,54)" d="M 259.279 618.506 C 266.983 622.107 276.435 623.94 284.756 625.685 C 311.02 631.196 336.127 632.915 362.927 632.11 L 363.762 679.564 L 347.118 680.025 C 312.063 679.487 273.322 670.96 240.769 658.245 C 244.597 644.62 252.828 631.104 259.279 618.506 z"/>
<path transform="translate(0,0)" fill="rgb(223,178,17)" d="M 1815.28 445.681 L 1968.85 434.697 L 1943.54 484.169 C 1937.13 495.687 1927.47 508.072 1923.39 520.471 C 1921.87 525.084 1921.85 529.52 1923.52 534.137 C 1925.65 540.006 1929.89 545.477 1933.65 550.396 L 1958.84 580.301 C 1973.76 597.828 1988.06 615.534 2004.15 632.066 L 1920.91 632.542 C 1911.31 632.222 1901.93 628.59 1892.44 628.809 C 1888.75 628.893 1885.29 629.423 1882.48 632.034 C 1879.99 634.347 1879.65 636.079 1879.73 639.5 C 1879.95 649.442 1885.1 661.235 1887.76 670.884 L 1900.25 719.927 C 1890.52 713.296 1879.31 703.117 1868.13 699.584 C 1864.56 717.175 1864.13 735.438 1861.33 753.214 C 1854.53 796.349 1841.82 838.769 1824.98 879.033 L 1887.05 876.517 C 1890.21 876.388 1899.69 874.994 1902.1 875.894 C 1902.88 876.184 1904.31 877.522 1904.92 878.101 C 1916.7 889.241 1926.51 904.317 1936.96 916.849 L 1983.47 972.753 C 1990.08 980.962 1997.62 989.277 2003.28 998.149 C 1980.19 996.469 1956.82 997.178 1933.68 997.275 C 1920.76 997.33 1906.15 996.087 1893.45 998.527 C 1889.88 999.213 1885.52 1001.27 1882.77 1003.74 C 1880.41 1005.85 1879.05 1007.09 1878.94 1010.29 C 1878.67 1018.18 1887.74 1031.86 1891.47 1038.76 L 1924.13 1098.57 L 1853.66 1098.74 C 1842.67 1098.37 1830.47 1095.07 1819.64 1096.5 C 1814.38 1097.2 1809.29 1100.1 1805.58 1103.84 C 1803.57 1105.87 1802.88 1107.76 1802.34 1110.5 C 1802.9 1112.9 1803.39 1115.32 1804.27 1117.63 C 1812.03 1131.51 1817.28 1147.63 1822.71 1162.58 L 1857.07 1265.57 L 1609.65 1240.92 C 1586.11 1263.94 1559.83 1284.53 1533.21 1303.86 C 1488.45 1336.35 1441.78 1364.84 1391.63 1388.35 C 1352.13 1406.88 1310.5 1422.02 1269.36 1436.4 C 1211.96 1456.48 1153.2 1473.8 1093.7 1486.4 L 1034.71 1499.2 C 1025.46 1501.1 1015.46 1503.85 1006 1503.98 C 1004.36 1504 1003.07 1503.69 1001.5 1503.31 C 940.768 1488.77 879.087 1473.56 819.981 1453.3 C 733.925 1423.81 651.059 1382.77 576.278 1330.86 C 552.544 1314.38 528.922 1296.77 506.803 1278.19 C 489.581 1263.72 473.015 1246.91 454.163 1234.7 C 452.298 1233.23 448.326 1233.66 446 1233.59 L 445.495 1233.1 L 444.631 1232.36 C 440.442 1228.7 432.419 1227.79 427.022 1226 C 409.442 1220.18 390.83 1214.78 373.672 1207.98 L 370.497 1206.83 C 359.354 1204.18 349.533 1197.56 339.298 1192.69 C 335.479 1190.88 331.642 1187.98 328.527 1185.13 L 333.916 1180.4 C 336.711 1178.25 338.161 1175.84 339.925 1172.87 C 342.217 1166.47 341.851 1159.43 344.236 1153.05 L 344.702 1152.93 L 429.554 1193.82 L 497.709 1225.07 C 501.049 1226.67 505.82 1224.81 509.419 1224.5 C 515.375 1223.99 521.561 1224.66 527.424 1223.33 C 540.642 1220.34 553.604 1215.43 566.624 1211.64 L 680.309 1176.87 L 717.401 1164.89 C 718.746 1174.96 719.308 1187.33 717.635 1197.36 L 980.183 1335.21 C 985.967 1337.32 999.55 1343.99 1004.88 1342.2 C 1003.11 1338.35 1004.48 1329.1 1004.58 1324.48 L 1004.92 1283.75 C 1004.92 1274.01 1005.55 1263.23 1002.57 1253.86 C 997.965 1266.78 1000.11 1284.51 1000.24 1298.22 L 996.649 1292.79 C 990.672 1284.48 977.714 1272.4 967.496 1270.55 C 963.808 1269.88 959.398 1270.55 955.706 1271.02 C 949.342 1271.83 943.334 1273.55 936.928 1272.45 L 935.896 1272.26 L 960.652 1265.47 C 964.012 1263.04 968.242 1261.29 971.804 1259 L 959.257 1247.98 C 947.478 1236 948.576 1211.89 948.807 1195.95 C 953.703 1180.49 948.706 1163.39 951.915 1147.73 C 952.741 1117.17 960.434 1084.71 956.245 1054.33 L 1043.72 1115.87 L 1050.38 1121.39 L 1091.56 1109.7 C 1097.22 1108 1104.32 1106.57 1109.34 1103.5 L 1108.99 1094.23 C 1124.32 1093.75 1138.74 1101.39 1154.47 1100.22 C 1163.51 1099.54 1174.24 1094.93 1183.01 1092.39 L 1236.95 1076.74 C 1252.02 1072.05 1266.96 1066.32 1282.41 1063.09 C 1284.24 1062.66 1286.57 1062.73 1288.47 1062.6 L 1289.99 1060.68 C 1279.49 1056.24 1271.09 1052.07 1263.31 1043.54 C 1261.33 1038.04 1255.89 1030.68 1256.85 1024.9 C 1257.27 1022.82 1258.3 1021.01 1259.21 1019.1 C 1268.67 1014.18 1279.45 1014.01 1289.87 1013.91 C 1304.53 1013.78 1318.66 1014.58 1333.19 1016.33 L 1336.59 1014.8 L 1337.6 1015.41 C 1342.92 1018.72 1346.55 1023.15 1350.28 1028.09 C 1363.14 1025.11 1375.58 1019.81 1387.97 1015.29 L 1398.89 1010.39 C 1411.09 1009.62 1422.85 1013.21 1434.95 1013.41 L 1438.52 1012.24 L 1460.95 1017.43 L 1486.91 1020.92 L 1487.91 1024.61 C 1487.47 1026.38 1487.61 1026.03 1488.38 1027.5 C 1499.13 1019.72 1514.41 1024.68 1527.01 1020.56 C 1530.64 1019.38 1537.73 1016.05 1539.94 1012.61 C 1541.91 1009.53 1541.69 1003.45 1543.7 999.6 L 1544.1 998.85 L 1542.84 1018.04 C 1541.98 1026.68 1540.1 1033.87 1544.5 1041.9 L 1547.98 1044.49 C 1572.38 1052.98 1601.77 1051.81 1627.16 1049.92 C 1632.31 1043.45 1634.33 1035.05 1640.11 1028.27 C 1649.58 1029.38 1661.18 1035.94 1668.62 1041.67 L 1673.23 1049.14 C 1677.73 1052.52 1682.33 1053.24 1687.8 1053.48 L 1691.28 1053.52 C 1695.04 1053.32 1697.01 1050.26 1699.27 1047.6 C 1711.24 1035.49 1731.51 1019.51 1734.45 1002.13 C 1736.4 990.558 1737.87 975.95 1736.83 964.312 C 1734.31 936.007 1719.79 906.371 1703.23 883.66 C 1710.48 880.866 1720.72 881.952 1728.55 881.679 L 1777.93 879.985 L 1777.17 639.743 C 1754.5 639.721 1731.88 642.101 1709.33 644.193 C 1700.11 645.048 1686.27 648.487 1677.42 646.911 L 1675.71 581.601 L 1576.43 548.775 L 1643.83 475.155 C 1651.48 467.31 1663.03 459.705 1668.99 450.532 L 1669.79 449.26 L 1670.9 447 C 1675.45 444.236 1683.71 445.37 1689.02 445.542 L 1730.5 447.342 L 1769.99 447.221 L 1815.28 445.681 z"/>
<path transform="translate(0,0)" fill="rgb(188,182,171)" d="M 1687.8 1053.48 L 1691.28 1053.52 C 1695.04 1053.32 1697.01 1050.26 1699.27 1047.6 C 1703.59 1056.62 1706.23 1072.99 1704.28 1083.06 C 1698.63 1074.32 1697.51 1063.69 1692.24 1055.14 C 1691.52 1053.98 1689.14 1053.82 1687.8 1053.48 z"/>
<path transform="translate(0,0)" fill="rgb(208,177,64)" d="M 1710.59 1127.25 C 1720.89 1124.06 1733.56 1124.68 1744.28 1124.42 C 1747.13 1124.96 1748.34 1124.62 1750.12 1127 L 1749.86 1133.07 L 1714 1134.09 C 1711.41 1132.37 1711.4 1130.14 1710.59 1127.25 z"/>
<path transform="translate(0,0)" fill="rgb(150,120,27)" d="M 1669.79 449.26 L 1670.9 447 C 1675.45 444.236 1683.71 445.37 1689.02 445.542 L 1730.5 447.342 L 1769.99 447.221 L 1815.28 445.681 L 1816.5 447.812 C 1811.61 451.014 1801.91 452.289 1796.17 453.676 L 1757.16 463.345 C 1728.42 470.711 1696.1 478.638 1669.6 491.981 L 1669.79 449.26 z"/>
<path transform="translate(0,0)" fill="rgb(71,104,141)" d="M 1673.23 1049.14 C 1677.73 1052.52 1682.33 1053.24 1687.8 1053.48 C 1689.14 1053.82 1691.52 1053.98 1692.24 1055.14 C 1697.51 1063.69 1698.63 1074.32 1704.28 1083.06 L 1707.47 1092.34 C 1709.17 1100.81 1709.19 1109.23 1709.33 1117.82 C 1709.38 1120.67 1709.89 1124.19 1708.96 1126.88 C 1684.4 1125.82 1659.42 1127.3 1634.86 1128.34 C 1621.83 1128.88 1608.43 1128.47 1595.58 1130.72 C 1592.59 1131.24 1589.93 1132.52 1587.2 1133.79 C 1597.87 1120.73 1615.57 1118.09 1626.32 1106.36 C 1630.32 1101.99 1626.93 1097.5 1630.28 1093.42 C 1635.94 1086.52 1641.77 1079.41 1648.35 1073.35 C 1657.17 1065.21 1666.2 1059.2 1673.23 1049.14 z"/>
<path transform="translate(0,0)" fill="rgb(208,177,64)" d="M 717.635 1197.36 L 980.183 1335.21 C 972.691 1339.19 957.245 1337.86 948.469 1338.78 C 889.133 1344.94 831.357 1344.97 772.137 1337.66 L 714.657 1328.6 L 715.239 1247.38 L 715.629 1211.05 C 715.822 1206.65 715.523 1201.28 717.635 1197.36 z"/>
<path transform="translate(0,0)" fill="rgb(71,104,141)" d="M 1487.91 1024.61 C 1487.47 1026.38 1487.61 1026.03 1488.38 1027.5 C 1499.13 1019.72 1514.41 1024.68 1527.01 1020.56 C 1530.64 1019.38 1537.73 1016.05 1539.94 1012.61 C 1541.91 1009.53 1541.69 1003.45 1543.7 999.6 L 1544.1 998.85 L 1542.84 1018.04 C 1541.98 1026.68 1540.1 1033.87 1544.5 1041.9 L 1547.98 1044.49 C 1572.38 1052.98 1601.77 1051.81 1627.16 1049.92 C 1632.31 1043.45 1634.33 1035.05 1640.11 1028.27 C 1649.58 1029.38 1661.18 1035.94 1668.62 1041.67 L 1673.23 1049.14 C 1666.2 1059.2 1657.17 1065.21 1648.35 1073.35 C 1641.77 1079.41 1635.94 1086.52 1630.28 1093.42 C 1626.93 1097.5 1630.32 1101.99 1626.32 1106.36 C 1615.57 1118.09 1597.87 1120.73 1587.2 1133.79 C 1583.84 1137.03 1578.57 1143.48 1574.29 1144.91 L 1515.18 1164.68 L 1227.46 1265.46 L 1004.88 1342.2 C 1003.11 1338.35 1004.48 1329.1 1004.58 1324.48 L 1004.92 1283.75 C 1004.92 1274.01 1005.55 1263.23 1002.57 1253.86 C 997.965 1266.78 1000.11 1284.51 1000.24 1298.22 L 996.649 1292.79 C 990.672 1284.48 977.714 1272.4 967.496 1270.55 C 963.808 1269.88 959.398 1270.55 955.706 1271.02 C 949.342 1271.83 943.334 1273.55 936.928 1272.45 L 935.896 1272.26 L 960.652 1265.47 C 964.012 1263.04 968.242 1261.29 971.804 1259 L 959.257 1247.98 C 947.478 1236 948.576 1211.89 948.807 1195.95 C 953.703 1180.49 948.706 1163.39 951.915 1147.73 C 952.741 1117.17 960.434 1084.71 956.245 1054.33 L 1043.72 1115.87 L 1050.38 1121.39 L 1091.56 1109.7 C 1097.22 1108 1104.32 1106.57 1109.34 1103.5 L 1108.99 1094.23 C 1124.32 1093.75 1138.74 1101.39 1154.47 1100.22 C 1163.51 1099.54 1174.24 1094.93 1183.01 1092.39 L 1236.95 1076.74 C 1252.02 1072.05 1266.96 1066.32 1282.41 1063.09 C 1284.24 1062.66 1286.57 1062.73 1288.47 1062.6 L 1289.99 1060.68 C 1279.49 1056.24 1271.09 1052.07 1263.31 1043.54 C 1261.33 1038.04 1255.89 1030.68 1256.85 1024.9 C 1257.27 1022.82 1258.3 1021.01 1259.21 1019.1 C 1268.67 1014.18 1279.45 1014.01 1289.87 1013.91 C 1304.53 1013.78 1318.66 1014.58 1333.19 1016.33 L 1336.59 1014.8 L 1337.6 1015.41 C 1342.92 1018.72 1346.55 1023.15 1350.28 1028.09 C 1363.14 1025.11 1375.58 1019.81 1387.97 1015.29 L 1398.89 1010.39 C 1411.09 1009.62 1422.85 1013.21 1434.95 1013.41 L 1438.52 1012.24 L 1460.95 1017.43 L 1486.91 1020.92 L 1487.91 1024.61 z"/>
<path transform="translate(0,0)" fill="rgb(36,65,91)" d="M 1460.95 1017.43 L 1486.91 1020.92 L 1487.91 1024.61 C 1481.29 1026.93 1470.74 1026.1 1463.46 1026.53 L 1461.01 1018.37 L 1460.95 1017.43 z"/>
<path transform="translate(0,0)" fill="url(#Gradient1)" d="M 951.915 1147.73 C 961.139 1152.83 976.85 1157.18 982.764 1166.08 C 983.822 1172.12 978.598 1183.84 975.126 1188.98 C 972.692 1192.59 969.795 1195.28 965.5 1196.17 L 964.387 1196.44 C 959.395 1197.55 953.826 1196.59 948.807 1195.95 C 953.703 1180.49 948.706 1163.39 951.915 1147.73 z"/>
<path transform="translate(0,0)" fill="rgb(139,169,192)" d="M 956.354 1170.5 C 959.846 1169.87 966.223 1169.54 969.217 1171.58 L 969.993 1172.16 L 973.74 1174.99 L 973.5 1177.79 C 968.425 1178.3 959.963 1174.98 955.758 1172.16 L 956.354 1170.5 z"/>
<path transform="translate(0,0)" fill="rgb(39,75,107)" d="M 1398.89 1010.39 C 1411.09 1009.62 1422.85 1013.21 1434.95 1013.41 L 1438.52 1012.24 L 1460.95 1017.43 L 1461.01 1018.37 L 1459.74 1018.8 C 1455.9 1020.14 1452.65 1022.7 1448.75 1023.98 C 1439.21 1027.12 1429.29 1029.15 1419.61 1031.8 C 1387.87 1040.52 1356 1048.54 1325.25 1060.41 L 1321.21 1058.82 L 1328.1 1053.34 C 1335.15 1047.08 1339.02 1038.27 1339.57 1028.9 C 1339.81 1024.91 1340.76 1022.02 1338.05 1018.96 C 1336.76 1017.63 1334.88 1017.07 1333.19 1016.33 L 1336.59 1014.8 L 1337.6 1015.41 C 1342.92 1018.72 1346.55 1023.15 1350.28 1028.09 C 1363.14 1025.11 1375.58 1019.81 1387.97 1015.29 L 1398.89 1010.39 z"/>
<path transform="translate(0,0)" fill="rgb(71,104,141)" d="M 1398.89 1010.39 C 1411.09 1009.62 1422.85 1013.21 1434.95 1013.41 L 1434.5 1015.54 L 1402.53 1017.02 C 1397.59 1017.14 1392.42 1017.85 1387.97 1015.29 L 1398.89 1010.39 z"/>
<path transform="translate(0,0)" fill="rgb(92,155,200)" d="M 1259.21 1019.1 C 1268.67 1014.18 1279.45 1014.01 1289.87 1013.91 C 1304.53 1013.78 1318.66 1014.58 1333.19 1016.33 C 1334.88 1017.07 1336.76 1017.63 1338.05 1018.96 C 1340.76 1022.02 1339.81 1024.91 1339.57 1028.9 C 1339.02 1038.27 1335.15 1047.08 1328.1 1053.34 L 1321.21 1058.82 C 1317.3 1061.36 1309.97 1066.35 1305.13 1065.26 L 1304.02 1064.9 C 1301.83 1064.09 1299.83 1062.89 1297.8 1061.76 L 1289.99 1060.68 C 1279.49 1056.24 1271.09 1052.07 1263.31 1043.54 C 1261.33 1038.04 1255.89 1030.68 1256.85 1024.9 C 1257.27 1022.82 1258.3 1021.01 1259.21 1019.1 z"/>
<path transform="translate(0,0)" fill="rgb(73,141,190)" d="M 1263.31 1043.54 C 1261.33 1038.04 1255.89 1030.68 1256.85 1024.9 L 1258.53 1027.09 L 1259.5 1027.08 C 1266.44 1027.17 1273.77 1030.92 1278.53 1035.89 C 1285.89 1043.59 1290.41 1053.8 1297.8 1061.76 L 1289.99 1060.68 C 1279.49 1056.24 1271.09 1052.07 1263.31 1043.54 z"/>
<path transform="translate(0,0)" fill="rgb(73,141,190)" d="M 1338.05 1018.96 C 1340.76 1022.02 1339.81 1024.91 1339.57 1028.9 C 1339.02 1038.27 1335.15 1047.08 1328.1 1053.34 L 1321.21 1058.82 C 1317.3 1061.36 1309.97 1066.35 1305.13 1065.26 L 1304.02 1064.9 L 1304.81 1063.71 C 1308.57 1056.82 1313.85 1052.84 1318.37 1046.63 C 1321.74 1042.02 1323.76 1036.43 1326.93 1031.65 C 1329.98 1027.04 1334.09 1023.76 1337.57 1019.55 L 1338.05 1018.96 z"/>
<path transform="translate(0,0)" fill="rgb(221,163,126)" d="M 1627.16 1049.92 C 1632.31 1043.45 1634.33 1035.05 1640.11 1028.27 C 1649.58 1029.38 1661.18 1035.94 1668.62 1041.67 L 1673.23 1049.14 C 1666.2 1059.2 1657.17 1065.21 1648.35 1073.35 C 1641.77 1079.41 1635.94 1086.52 1630.28 1093.42 C 1626.93 1097.5 1630.32 1101.99 1626.32 1106.36 C 1615.57 1118.09 1597.87 1120.73 1587.2 1133.79 C 1583.84 1137.03 1578.57 1143.48 1574.29 1144.91 C 1568.42 1141.45 1561.37 1140.4 1556.27 1135.74 C 1554.27 1122.57 1571.54 1110.22 1579.93 1102.48 L 1610 1076.25 C 1613.5 1073.39 1621.72 1068.02 1623.85 1064.23 C 1625.75 1060.84 1626.33 1053.89 1627.16 1049.92 z"/>
<path transform="translate(0,0)" fill="rgb(36,65,91)" d="M 960.652 1265.47 C 966.955 1266.65 974.333 1263.77 980.376 1261.86 C 997.225 1256.52 1013.48 1248.76 1030.15 1242.76 L 1129.53 1208.7 L 1151.13 1200.93 C 1152.42 1200.52 1156.2 1198.91 1157.4 1199.02 C 1158.72 1199.13 1165.2 1205.19 1166.46 1206.31 C 1181.67 1219.83 1194.65 1235.18 1209.26 1249.21 C 1215.11 1254.83 1221.87 1259.63 1227.46 1265.46 L 1004.88 1342.2 C 1003.11 1338.35 1004.48 1329.1 1004.58 1324.48 L 1004.92 1283.75 C 1004.92 1274.01 1005.55 1263.23 1002.57 1253.86 C 997.965 1266.78 1000.11 1284.51 1000.24 1298.22 L 996.649 1292.79 C 990.672 1284.48 977.714 1272.4 967.496 1270.55 C 963.808 1269.88 959.398 1270.55 955.706 1271.02 C 949.342 1271.83 943.334 1273.55 936.928 1272.45 L 935.896 1272.26 L 960.652 1265.47 z"/>
<path transform="translate(0,0)" fill="rgb(208,177,64)" d="M 370.965 300.124 L 371.719 299.646 C 377.522 295.743 381.796 289.119 386.5 283.972 L 410.356 259.524 C 439.917 230.118 471.74 202.483 506.54 179.428 C 525.781 166.681 545.515 153.911 565.902 143.068 C 650.047 98.3113 741.019 71.9656 834.268 54.2441 C 869.63 47.5237 905.225 41.3566 941.104 38.1842 L 1034.61 34.6058 C 1100.94 33.1319 1166.8 34.9697 1232.27 46.5651 C 1298.51 58.296 1363.81 81.3936 1425.32 108.305 L 1493.5 139.144 C 1574.39 180.118 1649.53 236.168 1701.95 311 C 1731.44 353.105 1752.8 398.939 1769.99 447.221 L 1730.5 447.342 L 1689.02 445.542 C 1683.71 445.37 1675.45 444.236 1670.9 447 L 1669.79 449.26 L 1668.99 450.532 C 1663.03 459.705 1651.48 467.31 1643.83 475.155 L 1576.43 548.775 L 1675.71 581.601 L 1677.42 646.911 C 1686.27 648.487 1700.11 645.048 1709.33 644.193 C 1731.88 642.101 1754.5 639.721 1777.17 639.743 L 1777.93 879.985 L 1728.55 881.679 C 1720.72 881.952 1710.48 880.866 1703.23 883.66 C 1719.79 906.371 1734.31 936.007 1736.83 964.312 C 1737.87 975.95 1736.4 990.558 1734.45 1002.13 C 1731.51 1019.51 1711.24 1035.49 1699.27 1047.6 C 1697.01 1050.26 1695.04 1053.32 1691.28 1053.52 L 1687.8 1053.48 C 1682.33 1053.24 1677.73 1052.52 1673.23 1049.14 L 1668.62 1041.67 C 1661.18 1035.94 1649.58 1029.38 1640.11 1028.27 C 1634.33 1035.05 1632.31 1043.45 1627.16 1049.92 C 1601.77 1051.81 1572.38 1052.98 1547.98 1044.49 L 1544.5 1041.9 C 1540.1 1033.87 1541.98 1026.68 1542.84 1018.04 L 1544.1 998.85 L 1543.7 999.6 C 1541.69 1003.45 1541.91 1009.53 1539.94 1012.61 C 1537.73 1016.05 1530.64 1019.38 1527.01 1020.56 C 1514.41 1024.68 1499.13 1019.72 1488.38 1027.5 C 1487.61 1026.03 1487.47 1026.38 1487.91 1024.61 L 1486.91 1020.92 L 1460.95 1017.43 L 1438.52 1012.24 L 1434.95 1013.41 C 1422.85 1013.21 1411.09 1009.62 1398.89 1010.39 L 1387.97 1015.29 C 1375.58 1019.81 1363.14 1025.11 1350.28 1028.09 C 1346.55 1023.15 1342.92 1018.72 1337.6 1015.41 L 1336.59 1014.8 L 1333.19 1016.33 C 1318.66 1014.58 1304.53 1013.78 1289.87 1013.91 C 1279.45 1014.01 1268.67 1014.18 1259.21 1019.1 C 1258.3 1021.01 1257.27 1022.82 1256.85 1024.9 C 1255.89 1030.68 1261.33 1038.04 1263.31 1043.54 C 1271.09 1052.07 1279.49 1056.24 1289.99 1060.68 L 1288.47 1062.6 C 1286.57 1062.73 1284.24 1062.66 1282.41 1063.09 C 1266.96 1066.32 1252.02 1072.05 1236.95 1076.74 L 1183.01 1092.39 C 1174.24 1094.93 1163.51 1099.54 1154.47 1100.22 C 1138.74 1101.39 1124.32 1093.75 1108.99 1094.23 L 1109.34 1103.5 C 1104.32 1106.57 1097.22 1108 1091.56 1109.7 L 1050.38 1121.39 L 1043.72 1115.87 L 956.245 1054.33 C 960.434 1084.71 952.741 1117.17 951.915 1147.73 C 948.706 1163.39 953.703 1180.49 948.807 1195.95 C 948.576 1211.89 947.478 1236 959.257 1247.98 L 971.804 1259 C 968.242 1261.29 964.012 1263.04 960.652 1265.47 L 935.896 1272.26 L 936.928 1272.45 C 943.334 1273.55 949.342 1271.83 955.706 1271.02 C 959.398 1270.55 963.808 1269.88 967.496 1270.55 C 977.714 1272.4 990.672 1284.48 996.649 1292.79 L 1000.24 1298.22 C 1000.11 1284.51 997.965 1266.78 1002.57 1253.86 C 1005.55 1263.23 1004.92 1274.01 1004.92 1283.75 L 1004.58 1324.48 C 1004.48 1329.1 1003.11 1338.35 1004.88 1342.2 C 999.55 1343.99 985.967 1337.32 980.183 1335.21 L 717.635 1197.36 C 719.308 1187.33 718.746 1174.96 717.401 1164.89 L 680.309 1176.87 L 566.624 1211.64 C 553.604 1215.43 540.642 1220.34 527.424 1223.33 C 521.561 1224.66 515.375 1223.99 509.419 1224.5 C 505.82 1224.81 501.049 1226.67 497.709 1225.07 L 429.554 1193.82 L 344.702 1152.93 L 344.236 1153.05 C 341.851 1159.43 342.217 1166.47 339.925 1172.87 C 338.161 1175.84 336.711 1178.25 333.916 1180.4 L 325.076 1183.27 L 319.714 1180.37 C 312.87 1181.62 306.808 1184.48 301.077 1188.38 C 294.55 1192.04 291.09 1193.08 283.664 1193.15 L 283.622 1190.26 C 283.472 1187.82 283.654 1184.41 282.515 1182.22 C 281.827 1180.9 278.582 1179.39 277.235 1178.56 C 272.53 1175.64 266.776 1172.65 263.132 1168.44 C 262.027 1167.16 260.027 1165.02 259.384 1163.49 C 258.201 1160.66 258.355 1155.38 258.417 1152.35 L 259.749 1127.24 L 260.129 1103.34 C 264.918 1100.08 267.914 1089.55 270.847 1084.31 C 274.874 1077.11 279.16 1070.15 284.179 1063.6 C 291.218 1054.41 300.214 1046.87 308.576 1038.94 C 319.752 1028.34 330.745 1017.37 340.276 1005.24 C 354.762 986.815 369.491 967.617 382.325 948.003 C 391.338 934.229 398.112 919.162 409.047 906.736 L 409.402 906.017 C 413.163 895.339 410.487 881.185 406.678 870.981 L 411.314 863.314 C 415.259 855.631 415.377 850.316 412.772 842.269 C 410.466 835.53 411.533 823.715 411.282 816.45 C 409.604 767.746 412.3 718.779 409.069 670.168 L 412.661 629.655 C 413.387 625.89 413.324 622.739 413.111 618.937 L 406.574 590.795 C 416.306 593.084 425.911 595.734 435.252 599.32 C 439.933 601.117 444.401 603.657 449.074 605.335 L 449.067 604.696 C 448.589 585.942 446.767 563.52 441.682 545.427 C 439.101 536.244 434.95 527.369 431.911 518.302 C 427.098 503.944 422.794 490.207 414.417 477.403 C 406.233 464.894 395.723 454.987 385.006 444.713 C 379.125 440.081 373.854 436.083 367.229 432.495 C 350.752 420.27 325.715 420.298 311.542 406.261 C 312.938 404.931 313.882 403.417 314.92 401.811 L 325.932 331.335 C 327.375 324.821 330.211 318.625 334.716 313.651 C 343.786 303.636 358.005 300.674 370.965 300.124 z"/>
<path transform="translate(0,0)" fill="rgb(243,221,162)" d="M 1332.53 589.624 L 1334.18 586.259 C 1336.91 586.307 1338.21 586.178 1340.17 588.5 L 1342.3 592.027 C 1339.2 593.222 1338 593.941 1334.65 593.5 L 1332.53 589.624 z"/>
<path transform="translate(0,0)" fill="rgb(223,178,17)" d="M 425.432 764.5 C 426.425 766.082 425.778 769.464 426.5 771.51 L 427.25 770.25 C 430.596 790.513 431.452 810.988 431.1 831.5 L 430.043 832.338 L 429.51 831 L 428.832 830.626 C 426.76 826.083 427.236 816.4 426.922 811.25 C 425.99 795.973 423.319 779.686 425.432 764.5 z"/>
<path transform="translate(0,0)" fill="rgb(222,212,207)" d="M 442.017 834.172 C 451.387 833.778 467.171 841.768 474.556 847.503 L 475.093 850.713 C 472.696 851.341 472.286 851.575 470.5 853.293 C 466.901 853.871 465.042 853.104 461.847 851.468 C 459.649 848.987 456.101 847.546 453.51 845.5 C 451.375 843.814 449.598 842.685 447.128 841.492 L 442.017 834.172 z"/>
<path transform="translate(0,0)" fill="rgb(180,134,20)" d="M 1499.17 818.16 L 1499.43 820.291 C 1499.98 822.825 1501.52 826.676 1503.73 828.126 C 1505.07 829.008 1505.29 828.999 1505.77 830.5 L 1503.5 830.798 C 1498.89 829.448 1494.75 825.221 1491.08 822.184 C 1479.72 812.764 1469.25 802.719 1458.83 792.279 L 1489.83 791.943 C 1492.63 800.248 1497.45 809.786 1499.17 818.16 z"/>
<path transform="translate(0,0)" fill="rgb(180,134,20)" d="M 767.872 886.012 L 769.225 892 L 768 893.025 L 712.16 854.355 L 681.773 835.647 C 674.767 831.446 667.358 827.434 661.32 821.876 L 661.188 817.5 L 662.5 816.566 C 685.338 828.458 707.349 843.246 728.396 858.083 C 740.27 866.454 751.797 875.601 764.227 883.101 L 767.872 886.012 z"/>
<path transform="translate(0,0)" fill="rgb(39,75,107)" d="M 515.182 759.006 L 560.683 781.494 C 563.494 782.929 570.211 785.53 572.147 787.821 C 572.687 788.46 572.786 789.367 573.105 790.14 C 579.484 806.447 589.074 816.337 602.961 826.374 L 515.068 849.859 L 515.182 759.006 z"/>
<path transform="translate(0,0)" fill="rgb(150,120,27)" d="M 1304.81 368.383 C 1308.8 365.604 1313.37 363.749 1317.77 361.711 L 1317.36 545.282 L 1317.64 575.422 C 1317.69 578.537 1317.19 583.813 1318.07 586.648 L 1318.06 633.02 L 1318 662.043 L 1320.23 722.163 L 1318.99 724.73 C 1315.14 725.152 1311.48 725.586 1308.3 722.913 C 1304.83 719.991 1305.66 714.709 1305.47 710.58 L 1305.18 676.917 L 1304.81 368.383 z"/>
<path transform="translate(0,0)" fill="rgb(223,178,17)" d="M 517.566 653.359 L 518.345 653.065 C 525.003 650.494 531.157 646.953 537.218 643.219 L 537.348 633.14 L 538.695 633.5 L 541.5 639.849 C 549.527 639.112 555.002 636.206 563.197 639.679 L 564.615 640.265 C 569.318 642.235 576.933 646.539 578.933 651.457 C 579.245 652.223 579.277 652.642 579.448 653.5 C 575.243 659.53 567.575 662.546 561.31 665.981 L 535.118 680.407 C 539.093 684.353 544.113 687.628 548.531 691.081 L 580.95 716.321 C 589.298 711.546 598.006 707.713 606.717 703.661 C 612.143 701.137 617.832 697.984 623.519 696.178 C 624.388 701.472 623.413 706.846 622.5 712.078 C 619.7 728.119 613.25 748.813 604.199 762.238 C 601.023 763.478 598.426 761.318 595.08 761.837 C 594.42 749.182 536.654 711.435 525.612 700.388 C 520.132 694.905 522.364 688.614 522.543 681.314 C 522.682 675.653 523.245 661.393 520.565 656.5 C 520.021 655.508 518.391 654.223 517.566 653.359 z"/>
<path transform="translate(0,0)" fill="rgb(36,65,91)" d="M 818.156 564.347 L 813.311 558.747 C 802.674 543.595 801.325 504.977 804.825 486.879 C 806.416 478.65 809.49 471.429 816.7 466.642 C 828.857 458.572 845.571 457.831 859.544 460.717 C 876.36 464.19 897.381 472.013 907.016 486.966 L 906.104 487.332 C 895.675 491.378 884.102 493.135 873.111 494.909 C 868.867 495.595 861.894 495.96 858.051 497.754 C 856.319 498.563 853.553 503.07 852.574 504.696 C 847.756 512.694 842.887 521.166 839.057 529.675 L 837.29 533.784 C 832.433 543.471 826.123 557.05 818.156 564.347 z"/>
<path transform="translate(0,0)" fill="rgb(223,178,17)" d="M 1169.83 610.441 L 1170.5 589.912 C 1202.21 613.434 1236.75 634.356 1270.13 655.5 C 1281.2 662.513 1293.06 672.153 1305.18 676.917 L 1305.47 710.58 L 1305.06 716 L 1303.5 716.756 L 1170.77 629.603 C 1168.74 627.387 1169.8 613.887 1169.83 610.441 z"/>
<path transform="translate(0,0)" fill="rgb(36,65,91)" d="M 406.574 590.795 C 416.306 593.084 425.911 595.734 435.252 599.32 C 439.933 601.117 444.401 603.657 449.074 605.335 L 460.289 786.132 L 460.915 791 C 459.126 793.005 456.102 793.52 453.5 793.79 C 451.331 794.015 449.603 792.998 447.818 791.935 C 447.817 785.651 446.264 779.21 445.277 773.011 C 443.359 760.968 441.23 748.961 437.433 737.347 C 431.455 719.062 423.022 701.463 419.171 682.5 C 414.916 661.543 416.833 639.902 413.111 618.937 L 406.574 590.795 z"/>
<path transform="translate(0,0)" fill="url(#Gradient2)" d="M 1417.63 687.685 L 1536.08 688.213 C 1527.58 689.792 1517.4 695.002 1511.15 701.053 C 1507.14 704.934 1497.72 722.665 1492.75 721.813 C 1484.63 729.687 1481.3 749.678 1478.58 760.305 L 1472.03 763.163 C 1472.23 766.434 1471.77 769.174 1474.55 771.5 C 1476.65 773.258 1480.2 774.891 1482.87 775.179 L 1485.64 778.017 C 1480.33 780.617 1471.12 777.445 1464.99 778.293 L 1459.98 777.569 C 1456.22 776.405 1451.08 776.699 1447.03 775.877 C 1440.04 774.109 1434.18 772.046 1428.39 767.631 L 1425.96 765.744 L 1425.74 692.123 L 1424.54 690.523 L 1417.63 687.685 z"/>
<path transform="translate(0,0)" fill="rgb(127,86,17)" d="M 1456.1 705.997 L 1457.24 699.5 C 1463.78 698.654 1482.07 711.456 1487.66 715.792 C 1489.59 717.286 1490.89 718.719 1492.14 720.823 L 1492.75 721.813 C 1484.63 729.687 1481.3 749.678 1478.58 760.305 L 1472.03 763.163 C 1472.23 766.434 1471.77 769.174 1474.55 771.5 C 1476.65 773.258 1480.2 774.891 1482.87 775.179 L 1485.64 778.017 C 1480.33 780.617 1471.12 777.445 1464.99 778.293 L 1459.98 777.569 C 1456.22 776.405 1451.08 776.699 1447.03 775.877 C 1446.91 752.788 1450.77 728.388 1456.1 705.997 z"/>
<path transform="translate(0,0)" fill="rgb(223,178,17)" d="M 1459.98 777.569 L 1462.35 708.822 C 1467.92 714.329 1470.42 716.475 1470.5 724.627 L 1469.85 751.413 C 1470.06 755.708 1469.4 759.68 1472.03 763.163 C 1472.23 766.434 1471.77 769.174 1474.55 771.5 C 1476.65 773.258 1480.2 774.891 1482.87 775.179 L 1485.64 778.017 C 1480.33 780.617 1471.12 777.445 1464.99 778.293 L 1459.98 777.569 z"/>
<path transform="translate(0,0)" fill="rgb(180,134,20)" d="M 1464.99 778.293 C 1467.91 769.284 1467.79 760.458 1469.85 751.413 C 1470.06 755.708 1469.4 759.68 1472.03 763.163 C 1472.23 766.434 1471.77 769.174 1474.55 771.5 C 1476.65 773.258 1480.2 774.891 1482.87 775.179 L 1485.64 778.017 C 1480.33 780.617 1471.12 777.445 1464.99 778.293 z"/>
<path transform="translate(0,0)" fill="rgb(112,85,43)" d="M 1456.1 705.997 L 1457.24 699.5 C 1463.78 698.654 1482.07 711.456 1487.66 715.792 C 1489.59 717.286 1490.89 718.719 1492.14 720.823 L 1492.75 721.813 C 1484.63 729.687 1481.3 749.678 1478.58 760.305 L 1472.03 763.163 C 1469.4 759.68 1470.06 755.708 1469.85 751.413 L 1470.5 724.627 C 1470.42 716.475 1467.92 714.329 1462.35 708.822 L 1462.33 708.849 L 1456.1 705.997 z"/>
<path transform="translate(0,0)" fill="rgb(255,255,255)" d="M 447.128 841.492 C 449.598 842.685 451.375 843.814 453.51 845.5 C 456.101 847.546 459.649 848.987 461.847 851.468 C 465.042 853.104 466.901 853.871 470.5 853.293 C 472.286 851.575 472.696 851.341 475.093 850.713 C 486.786 861.828 494.458 874.652 504.882 886.667 L 505.126 885.903 L 510.829 872.949 L 512.973 872.147 C 521.553 876.156 532.085 877.832 536.08 887.726 C 538.669 894.139 537.468 904.365 534.5 910.403 C 528.542 922.524 514.797 930.092 502.393 933.918 C 488.214 938.291 461.574 941.143 447.879 933.988 C 445.091 932.531 442.577 930.725 440.106 928.79 C 438.678 925.817 437.047 922.844 436.829 919.5 C 435.868 904.759 443.982 893.44 453.329 882.96 C 455.062 880.808 458.39 877.319 458.864 874.595 C 459.341 871.851 457.907 867.819 457.338 865.099 C 456.53 861.237 456.588 857.374 455.278 853.594 C 453.802 849.336 449.905 845.043 447.128 841.492 z"/>
<path transform="translate(0,0)" fill="rgb(221,163,126)" d="M 907.016 486.966 C 911.669 499.734 908.448 549.804 902.155 563.172 C 899.382 569.064 893.101 572.97 891.86 579.284 L 878.172 578.78 L 904.031 605.761 L 890.419 610.047 C 879.762 606.433 869.663 600.528 859.683 595.369 C 849.828 590.275 839.029 585.256 830.044 578.76 C 830.888 578.104 831.463 577.631 832.099 576.783 C 834.806 573.176 834.879 567.096 835.363 562.746 C 836.405 553.374 838.838 543.139 837.29 533.784 L 839.057 529.675 C 842.887 521.166 847.756 512.694 852.574 504.696 C 853.553 503.07 856.319 498.563 858.051 497.754 C 861.894 495.96 868.867 495.595 873.111 494.909 C 884.102 493.135 895.675 491.378 906.104 487.332 L 907.016 486.966 z"/>
<path transform="translate(0,0)" fill="rgb(36,65,91)" d="M 1536.08 688.213 L 1544.5 687.988 L 1545.79 689.5 L 1539.87 704.343 C 1545.88 707.875 1551.42 711.702 1557.05 715.78 C 1559.25 717.369 1562.23 718.952 1563.66 721.283 C 1571.42 724.422 1582.26 728.137 1586.22 736.296 C 1586.72 737.307 1586.77 738.409 1586.92 739.5 C 1588.67 752.288 1587.08 765.062 1584.23 777.586 L 1576.59 798.961 C 1576.34 799.952 1576.23 801.073 1575.77 802 C 1574.42 804.759 1573.3 805.809 1570.5 806.775 C 1559.84 803.343 1551.15 792.792 1543 785.386 L 1532.69 787.55 C 1519.34 789.339 1499.41 779.097 1489.08 771.111 L 1487.85 768.65 L 1490.62 756.125 C 1486.41 756.891 1482.53 758.688 1478.58 760.305 C 1481.3 749.678 1484.63 729.687 1492.75 721.813 C 1497.72 722.665 1507.14 704.934 1511.15 701.053 C 1517.4 695.002 1527.58 689.792 1536.08 688.213 z"/>
<path transform="translate(0,0)" fill="rgb(255,255,255)" d="M 1518.38 733.845 L 1517.79 732.859 C 1518.7 729.409 1521.39 725.805 1523.16 722.638 C 1526.46 716.754 1529.51 708.477 1534.5 704.001 L 1539.87 704.343 C 1545.88 707.875 1551.42 711.702 1557.05 715.78 C 1559.25 717.369 1562.23 718.952 1563.66 721.283 C 1558.34 721.004 1553.24 720.561 1548 721.709 L 1546.51 722.027 C 1537.14 724.081 1526.85 729.259 1518.38 733.845 z"/>
<path transform="translate(0,0)" fill="rgb(71,104,141)" d="M 1536.08 688.213 L 1544.5 687.988 L 1545.79 689.5 L 1539.87 704.343 L 1534.5 704.001 C 1529.51 708.477 1526.46 716.754 1523.16 722.638 C 1521.39 725.805 1518.7 729.409 1517.79 732.859 L 1518.38 733.845 L 1491.61 756.238 L 1490.62 756.125 C 1486.41 756.891 1482.53 758.688 1478.58 760.305 C 1481.3 749.678 1484.63 729.687 1492.75 721.813 C 1497.72 722.665 1507.14 704.934 1511.15 701.053 C 1517.4 695.002 1527.58 689.792 1536.08 688.213 z"/>
<path transform="translate(0,0)" fill="rgb(36,65,91)" d="M 370.965 300.124 C 393.039 302.782 411.394 309.853 429.231 323.357 L 436.878 330.283 C 440.809 335.216 452.071 346.117 452.807 351.5 C 450.473 353.985 450.246 355.03 446.784 355.135 C 443.226 355.243 440.096 354.752 436.706 353.627 C 434.069 362.448 432.527 371.574 429.764 380.316 C 423.493 400.162 411.77 415.253 398.245 430.536 C 394.251 435.048 390.155 441.661 385.006 444.713 C 379.125 440.081 373.854 436.083 367.229 432.495 C 350.752 420.27 325.715 420.298 311.542 406.261 C 312.938 404.931 313.882 403.417 314.92 401.811 L 325.932 331.335 C 327.375 324.821 330.211 318.625 334.716 313.651 C 343.786 303.636 358.005 300.674 370.965 300.124 z"/>
<path transform="translate(0,0)" fill="rgb(221,163,126)" d="M 314.92 401.811 C 321.96 389.583 328.409 378.364 338.897 368.743 C 343.169 371.84 347.671 375.945 352.369 378.239 C 359.76 381.848 369.558 382.93 377.608 384.493 C 383.184 376.066 388.8 366.379 397.053 360.301 C 408.882 351.591 422.9 351.687 436.706 353.627 C 434.069 362.448 432.527 371.574 429.764 380.316 C 423.493 400.162 411.77 415.253 398.245 430.536 C 394.251 435.048 390.155 441.661 385.006 444.713 C 379.125 440.081 373.854 436.083 367.229 432.495 C 350.752 420.27 325.715 420.298 311.542 406.261 C 312.938 404.931 313.882 403.417 314.92 401.811 z"/>
<path transform="translate(0,0)" fill="rgb(71,104,141)" d="M 1370.68 591.747 L 1370.83 490.063 C 1383.47 482.236 1395.21 472.838 1407.01 463.829 L 1454.34 426.273 L 1495.91 459.844 C 1501.47 464.302 1507.55 470.257 1513.71 473.721 L 1514.91 474.375 L 1537.88 494.959 L 1537.26 591.731 L 1420.59 591.799 L 1387.88 591.903 C 1382.3 591.928 1376.14 592.533 1370.68 591.747 z"/>
<path transform="translate(0,0)" fill="rgb(208,177,64)" d="M 1514.06 489.443 C 1515.95 489.341 1516.02 489.335 1517.59 490.384 L 1518.08 582.398 L 1474.75 582.78 C 1472.95 582.698 1472.75 582.543 1471.26 581.5 L 1470.99 490.078 L 1514.06 489.443 z"/>
<path transform="translate(0,0)" fill="rgb(208,177,64)" d="M 1392.03 489.448 L 1442.55 489.844 L 1441.09 582.573 L 1392.88 582.794 L 1392.03 489.448 z"/>
<path transform="translate(0,0)" fill="rgb(208,177,64)" d="M 1304.81 368.383 L 1305.18 676.917 C 1293.06 672.153 1281.2 662.513 1270.13 655.5 C 1236.75 634.356 1202.21 613.434 1170.5 589.912 L 1169.83 610.441 C 1168.24 600.482 1169.31 588.509 1169.45 578.343 C 1169.87 546.11 1172.58 515.145 1178.98 483.5 C 1182.37 466.727 1187.41 450.018 1191.9 433.502 C 1196.94 427.972 1203.79 423.757 1210.09 419.752 C 1222.89 411.605 1236.28 404.533 1249.72 397.5 L 1304.81 368.383 z"/>
<path transform="translate(0,0)" fill="rgb(71,104,141)" d="M 824.136 574.489 L 830.044 578.76 C 839.029 585.256 849.828 590.275 859.683 595.369 C 869.663 600.528 879.762 606.433 890.419 610.047 L 904.031 605.761 L 878.172 578.78 L 891.86 579.284 C 905.649 580.397 920.791 585.271 930.041 596.072 C 936.458 603.564 945.441 614.591 947.606 624.195 L 946.291 715.798 C 944.901 717.144 945.011 717.161 944.978 719.157 C 944.795 730.277 948.194 740.885 949.511 751.812 L 948.844 752.968 C 947.493 757.951 950.139 765.837 951.034 771 L 953.251 789 C 954.316 789.893 954.103 790.064 955.585 790 C 954.793 791.646 953.911 793.171 953.773 795.024 C 940.685 811.736 911.475 823.93 890.688 826.574 C 871.024 829.075 847.222 828.509 829.639 818.186 C 828.251 813.172 829.087 805.883 829.054 800.646 C 828.959 785.554 828.242 770.201 830.094 755.197 C 831.053 750.583 831.874 742.437 829.923 738.261 L 826.51 739.049 C 824.186 740.944 824.139 744.438 822.739 746.988 C 811.175 742.883 799.203 741.539 787 741.962 C 781.458 742.153 776.7 742.648 772.792 746.894 L 771.884 746.65 C 771.468 745.913 771.394 745.876 771.162 744.916 C 770.057 740.329 771.103 733.816 771.574 729.096 L 775.937 691.983 C 777.785 673.053 778.073 653.893 781.205 635.111 C 781.679 632.271 782.518 629.728 783.868 627.193 C 789.156 617.259 800.583 609.907 808.064 601.492 C 813.27 595.634 817.091 588.283 821.304 581.681 C 821.853 578.93 822.793 576.941 824.136 574.489 z"/>
<path transform="translate(0,0)" fill="rgb(39,75,107)" d="M 826.51 739.049 C 827.758 728.49 830.289 716.594 829.363 706 C 828.65 697.852 824.165 692.387 822.627 684.957 C 821.498 679.506 823.16 673.069 824.632 667.782 C 833.822 675.737 842.198 684.584 843.19 697.366 C 844.447 713.56 838.843 725.172 829.923 738.261 L 826.51 739.049 z"/>
<path transform="translate(0,0)" fill="rgb(255,255,255)" d="M 824.136 574.489 L 830.044 578.76 C 839.029 585.256 849.828 590.275 859.683 595.369 C 869.663 600.528 879.762 606.433 890.419 610.047 L 904.031 605.761 C 906.558 609.275 908.595 613.047 909.761 617.224 C 912.083 625.537 915.126 643.243 912.74 651.654 C 912.004 654.249 910.258 656.969 908.952 659.331 C 887.329 646.807 874.926 626.502 857.744 609.414 C 846.919 598.65 833.809 590.315 821.304 581.681 C 821.853 578.93 822.793 576.941 824.136 574.489 z"/>
<path transform="translate(0,0)" fill="rgb(255,255,255)" d="M 1478.58 760.305 C 1482.53 758.688 1486.41 756.891 1490.62 756.125 L 1487.85 768.65 L 1489.08 771.111 C 1499.41 779.097 1519.34 789.339 1532.69 787.55 L 1543 785.386 C 1551.15 792.792 1559.84 803.343 1570.5 806.775 C 1573.3 805.809 1574.42 804.759 1575.77 802 C 1576.23 801.073 1576.34 799.952 1576.59 798.961 L 1584.23 777.586 C 1585.05 778.181 1586.96 779.206 1587.5 779.96 C 1588.07 780.755 1588.39 784.624 1588.66 785.774 C 1589.56 789.603 1592.73 797.121 1596.06 799.19 C 1604.31 804.312 1611.01 811.268 1618.42 817.478 C 1621.92 820.411 1626.15 822.697 1628.8 826.52 C 1630.13 828.436 1630.78 830.754 1631.38 832.979 C 1638.4 837.268 1646.41 839.851 1653.94 843.099 C 1661.77 846.472 1669.35 850.597 1676.95 854.459 C 1688.5 860.102 1695.6 873.767 1703.23 883.66 C 1719.79 906.371 1734.31 936.007 1736.83 964.312 C 1737.87 975.95 1736.4 990.558 1734.45 1002.13 C 1731.51 1019.51 1711.24 1035.49 1699.27 1047.6 C 1697.01 1050.26 1695.04 1053.32 1691.28 1053.52 L 1687.8 1053.48 C 1682.33 1053.24 1677.73 1052.52 1673.23 1049.14 L 1668.62 1041.67 C 1661.18 1035.94 1649.58 1029.38 1640.11 1028.27 C 1634.33 1035.05 1632.31 1043.45 1627.16 1049.92 C 1601.77 1051.81 1572.38 1052.98 1547.98 1044.49 L 1544.5 1041.9 C 1540.1 1033.87 1541.98 1026.68 1542.84 1018.04 L 1544.1 998.85 L 1543.7 999.6 C 1541.69 1003.45 1541.91 1009.53 1539.94 1012.61 C 1537.73 1016.05 1530.64 1019.38 1527.01 1020.56 C 1514.41 1024.68 1499.13 1019.72 1488.38 1027.5 C 1487.61 1026.03 1487.47 1026.38 1487.91 1024.61 L 1486.91 1020.92 L 1491.54 1012.22 C 1488.41 1000.6 1488.13 988.117 1486.13 976.274 C 1484.99 967.187 1485.49 957.479 1485.55 948.31 L 1486.31 909.817 C 1488 895.812 1489 877.866 1496.72 865.837 C 1499.36 861.733 1503.81 857.986 1507.32 854.601 L 1530 839.887 C 1529.01 839.521 1528.36 839.168 1527.61 838.396 C 1523.32 833.924 1517.87 830.837 1512.63 827.584 C 1506.78 824.946 1502.92 823.615 1499.17 818.16 C 1497.45 809.786 1492.63 800.248 1489.83 791.943 C 1488.99 787.156 1487.22 782.601 1485.64 778.017 L 1482.87 775.179 C 1480.2 774.891 1476.65 773.258 1474.55 771.5 C 1471.77 769.174 1472.23 766.434 1472.03 763.163 L 1478.58 760.305 z"/>
<path transform="translate(0,0)" fill="rgb(139,169,192)" d="M 1522.43 929.604 C 1522.45 924.626 1520.99 918.973 1520.33 913.982 C 1518.37 899.19 1517.55 884.334 1524.2 870.578 C 1525.16 875.741 1525.2 879.098 1530.06 882.274 C 1535.09 885.57 1542.08 886.255 1547.95 886.231 C 1538.27 906.566 1540.97 933.422 1543.01 955.417 C 1538.66 951.743 1536.27 947.429 1532.93 943 C 1529.51 938.461 1525.67 934.297 1522.43 929.604 z"/>
<path transform="translate(0,0)" fill="rgb(71,104,141)" d="M 1596.06 799.19 C 1604.31 804.312 1611.01 811.268 1618.42 817.478 C 1621.92 820.411 1626.15 822.697 1628.8 826.52 C 1630.13 828.436 1630.78 830.754 1631.38 832.979 C 1630.08 849.632 1616.77 866.887 1608.44 881.107 C 1604.25 888.258 1600.73 896.005 1595.51 902.472 L 1570 885.287 C 1574.36 881.781 1578.19 878.119 1581.75 873.783 C 1592.99 860.087 1608.44 838.379 1602.64 819.773 C 1600.64 813.358 1596.7 806.563 1596.11 799.883 L 1596.06 799.19 z"/>
<path transform="translate(0,0)" fill="rgb(255,255,255)" d="M 1530 839.887 L 1531.52 839.021 L 1540.18 844.96 L 1540.56 845.916 C 1534.24 852.736 1525.83 860.97 1524.2 870.578 C 1517.55 884.334 1518.37 899.19 1520.33 913.982 C 1520.99 918.973 1522.45 924.626 1522.43 929.604 C 1525.67 934.297 1529.51 938.461 1532.93 943 C 1536.27 947.429 1538.66 951.743 1543.01 955.417 C 1544.43 968.632 1547.24 985.796 1544.1 998.85 L 1543.7 999.6 C 1541.69 1003.45 1541.91 1009.53 1539.94 1012.61 C 1537.73 1016.05 1530.64 1019.38 1527.01 1020.56 C 1514.41 1024.68 1499.13 1019.72 1488.38 1027.5 C 1487.61 1026.03 1487.47 1026.38 1487.91 1024.61 L 1486.91 1020.92 L 1491.54 1012.22 C 1488.41 1000.6 1488.13 988.117 1486.13 976.274 C 1484.99 967.187 1485.49 957.479 1485.55 948.31 L 1486.31 909.817 C 1488 895.812 1489 877.866 1496.72 865.837 C 1499.36 861.733 1503.81 857.986 1507.32 854.601 L 1530 839.887 z"/>
<path transform="translate(0,0)" fill="rgb(183,197,208)" d="M 1509.58 981.292 L 1510.22 982.374 C 1511.03 983.742 1512.71 985.183 1513.31 986.5 C 1514.68 989.475 1513.36 995.274 1512.9 998.466 C 1506.89 1002.55 1499.83 1005.62 1494.24 1010.12 L 1493.92 986.377 L 1508 983.752 L 1509.58 981.292 z"/>
<path transform="translate(0,0)" fill="rgb(92,155,200)" d="M 1509.58 981.292 L 1507.5 962.532 L 1510.79 962.681 L 1513.87 959.5 C 1516.38 948.026 1512.67 934.906 1510.21 923.592 L 1522.43 929.604 C 1525.67 934.297 1529.51 938.461 1532.93 943 C 1536.27 947.429 1538.66 951.743 1543.01 955.417 C 1544.43 968.632 1547.24 985.796 1544.1 998.85 L 1543.7 999.6 C 1541.69 1003.45 1541.91 1009.53 1539.94 1012.61 C 1537.73 1016.05 1530.64 1019.38 1527.01 1020.56 C 1514.41 1024.68 1499.13 1019.72 1488.38 1027.5 C 1487.61 1026.03 1487.47 1026.38 1487.91 1024.61 L 1486.91 1020.92 L 1491.54 1012.22 L 1494.24 1010.12 C 1499.83 1005.62 1506.89 1002.55 1512.9 998.466 C 1513.36 995.274 1514.68 989.475 1513.31 986.5 C 1512.71 985.183 1511.03 983.742 1510.22 982.374 L 1509.58 981.292 z"/>
<path transform="translate(0,0)" fill="rgb(221,163,126)" d="M 1478.58 760.305 C 1482.53 758.688 1486.41 756.891 1490.62 756.125 L 1487.85 768.65 L 1489.08 771.111 C 1499.41 779.097 1519.34 789.339 1532.69 787.55 L 1543 785.386 C 1551.15 792.792 1559.84 803.343 1570.5 806.775 C 1573.3 805.809 1574.42 804.759 1575.77 802 C 1576.23 801.073 1576.34 799.952 1576.59 798.961 L 1584.23 777.586 C 1585.05 778.181 1586.96 779.206 1587.5 779.96 C 1588.07 780.755 1588.39 784.624 1588.66 785.774 C 1589.56 789.603 1592.73 797.121 1596.06 799.19 L 1596.11 799.883 C 1596.7 806.563 1600.64 813.358 1602.64 819.773 C 1608.44 838.379 1592.99 860.087 1581.75 873.783 C 1578.19 878.119 1574.36 881.781 1570 885.287 C 1566.23 882.397 1564.04 878.067 1560.1 875.052 L 1558.97 877.288 L 1547.95 886.231 C 1542.08 886.255 1535.09 885.57 1530.06 882.274 C 1525.2 879.098 1525.16 875.741 1524.2 870.578 C 1525.83 860.97 1534.24 852.736 1540.56 845.916 L 1540.18 844.96 L 1531.52 839.021 L 1530 839.887 C 1529.01 839.521 1528.36 839.168 1527.61 838.396 C 1523.32 833.924 1517.87 830.837 1512.63 827.584 C 1506.78 824.946 1502.92 823.615 1499.17 818.16 C 1497.45 809.786 1492.63 800.248 1489.83 791.943 C 1488.99 787.156 1487.22 782.601 1485.64 778.017 L 1482.87 775.179 C 1480.2 774.891 1476.65 773.258 1474.55 771.5 C 1471.77 769.174 1472.23 766.434 1472.03 763.163 L 1478.58 760.305 z"/>
<path transform="translate(0,0)" fill="rgb(112,85,43)" d="M 1546.15 843.926 C 1556.71 838.089 1565.22 830.515 1572.24 820.685 C 1569.21 833.513 1563.04 845.852 1561.28 858.709 L 1559.56 853.518 L 1559.31 852.5 C 1555.37 848.88 1550.79 846.503 1546.15 843.926 z"/>
<path transform="translate(0,0)" fill="rgb(176,155,148)" d="M 1546.15 843.926 C 1550.79 846.503 1555.37 848.88 1559.31 852.5 L 1559.56 853.518 L 1561.28 858.709 C 1560.89 863.305 1559.25 870.681 1560.1 875.052 L 1558.97 877.288 L 1558.29 876.411 C 1554.85 872.292 1552.34 868.754 1550.16 863.786 C 1547.64 858.066 1545.44 849.91 1540.56 845.916 L 1540.18 844.96 C 1542.24 844.99 1544.16 844.415 1546.15 843.926 z"/>
<path transform="translate(0,0)" fill="rgb(255,255,255)" d="M 1478.58 760.305 C 1482.53 758.688 1486.41 756.891 1490.62 756.125 L 1487.85 768.65 L 1489.08 771.111 C 1489.96 773.66 1490.72 775.679 1492.43 777.795 C 1495.04 781.031 1495.69 785.196 1497.39 788.915 C 1500.46 795.606 1506.19 802.699 1507.07 810 C 1507.45 813.192 1507.92 816.27 1507.71 819.5 L 1508.29 820.168 C 1510.3 822.552 1511.48 824.696 1512.63 827.584 C 1506.78 824.946 1502.92 823.615 1499.17 818.16 C 1497.45 809.786 1492.63 800.248 1489.83 791.943 C 1488.99 787.156 1487.22 782.601 1485.64 778.017 L 1482.87 775.179 C 1480.2 774.891 1476.65 773.258 1474.55 771.5 C 1471.77 769.174 1472.23 766.434 1472.03 763.163 L 1478.58 760.305 z"/>
<path transform="translate(0,0)" fill="rgb(71,104,141)" d="M 1540.56 845.916 C 1545.44 849.91 1547.64 858.066 1550.16 863.786 C 1552.34 868.754 1554.85 872.292 1558.29 876.411 L 1558.97 877.288 L 1547.95 886.231 C 1542.08 886.255 1535.09 885.57 1530.06 882.274 C 1525.2 879.098 1525.16 875.741 1524.2 870.578 C 1525.83 860.97 1534.24 852.736 1540.56 845.916 z"/>
<path transform="translate(0,0)" fill="rgb(183,197,208)" d="M 1676.95 854.459 C 1688.5 860.102 1695.6 873.767 1703.23 883.66 C 1719.79 906.371 1734.31 936.007 1736.83 964.312 C 1737.87 975.95 1736.4 990.558 1734.45 1002.13 C 1731.51 1019.51 1711.24 1035.49 1699.27 1047.6 C 1697.01 1050.26 1695.04 1053.32 1691.28 1053.52 L 1687.8 1053.48 C 1682.33 1053.24 1677.73 1052.52 1673.23 1049.14 L 1668.62 1041.67 C 1674.83 1034.6 1678.9 1026.83 1685.8 1020.05 C 1681.1 1007.32 1675.63 994.895 1675.76 981.143 L 1678.41 959.654 C 1674.91 958.181 1671.38 956.699 1668.32 954.416 C 1658.34 946.974 1651.31 936.42 1650.01 923.923 C 1647.62 900.933 1662.27 871.742 1676.95 854.459 z"/>
<path transform="translate(0,0)" fill="rgb(222,212,207)" d="M 1675.76 981.143 C 1689.37 981.154 1701.53 984.193 1714.55 987.796 C 1709.19 999.529 1696.79 1013.11 1685.8 1020.05 C 1681.1 1007.32 1675.63 994.895 1675.76 981.143 z"/>
<path transform="translate(0,0)" fill="rgb(71,104,141)" d="M 646.078 276.62 C 647.205 274.404 648.532 272.365 650.086 270.424 C 654.172 265.321 659.685 261.645 665.322 258.451 L 704.967 237.477 L 910.939 130.137 L 961.357 105.608 L 1009.17 80.6018 L 1031.9 68.2158 C 1035.22 66.4529 1039.12 63.7778 1042.85 63.3757 C 1066.48 72.8312 1088.91 85.8962 1111.32 97.8547 L 1200.94 145.199 L 1363.38 230.449 L 1414.5 258.291 C 1419.97 261.626 1424.18 265.375 1428.42 270.155 C 1421.99 272.225 1416.79 275.866 1411 279.193 L 1389.25 290.968 L 1285.78 344.229 L 1223.08 376.511 L 1193.57 392.915 L 1175.72 403.683 C 1171.29 406.413 1167.3 409.47 1161.99 410.084 L 1161.04 410.864 C 1157.64 413.498 1151.23 413.989 1148.27 416.88 C 1147.35 417.774 1145.79 427.886 1144.91 430.245 L 1144.74 433.703 C 1133.95 435.754 1124.31 439.634 1117.27 448.288 L 1117.02 448.362 C 1116.86 454.827 1116.83 460.479 1118.65 466.722 L 1115.73 469.38 C 1112.78 470.622 1109.58 471.724 1106.83 473.346 C 1094.15 481.101 1052.95 506.654 1039.93 506.043 C 1027.09 505.242 1014.11 497.313 1002.9 491.502 L 965.206 471.869 L 951.681 464.886 L 762.712 363.927 L 645.859 301.353 L 646.078 276.62 z"/>
<path transform="translate(0,0)" fill="rgb(73,141,190)" d="M 1118.81 219.372 C 1132.52 209.624 1151.8 209.815 1167.91 211.24 L 1153.9 223.065 C 1143.79 225.168 1135.23 226.199 1124.95 224.89 L 1118.81 219.372 z"/>
<path transform="translate(0,0)" fill="rgb(36,65,91)" d="M 1153.9 223.065 C 1166.09 223.884 1180.2 224.45 1192 221.071 C 1195.43 223.313 1196.92 226.732 1198.74 230.287 C 1197.05 237.905 1194.57 244.482 1191.39 251.566 L 1189.95 251.635 C 1182.42 252.039 1179.58 254.517 1174.65 259.856 C 1167.03 257.33 1161.13 252.497 1155 247.537 L 1152.84 247.968 C 1150.8 251.414 1148.92 254.809 1146.11 257.702 L 1143.78 260.974 C 1143.4 260.108 1142.77 258.179 1142.17 257.5 C 1140.21 255.285 1129.45 252.968 1126.5 253.059 C 1123.7 253.146 1120.08 254.815 1117.67 253.5 C 1118.86 251.217 1119.55 249.246 1120.03 246.709 L 1120.17 245.934 C 1121.68 239.475 1122.41 233.136 1122.93 226.53 L 1124.95 224.89 C 1135.23 226.199 1143.79 225.168 1153.9 223.065 z"/>
<path transform="translate(0,0)" fill="rgb(208,177,64)" d="M 1152.84 247.968 L 1153.13 248.77 C 1154.96 253.585 1158.58 257.635 1160.17 262.38 C 1161.24 265.575 1161.19 269.659 1161.22 273.036 C 1161.17 281.199 1162.65 292.928 1160.93 300.661 L 1161.99 410.084 L 1161.04 410.864 C 1157.64 413.498 1151.23 413.989 1148.27 416.88 C 1147.35 417.774 1145.79 427.886 1144.91 430.245 L 1144.63 417.98 C 1143.51 407.515 1143.94 396.537 1143.79 386.002 L 1143.26 328.451 L 1143.17 286.363 C 1143.17 277.981 1142.69 269.291 1143.78 260.974 L 1146.11 257.702 C 1148.92 254.809 1150.8 251.414 1152.84 247.968 z"/>
<path transform="translate(0,0)" fill="rgb(243,221,162)" d="M 1152.84 247.968 L 1153.13 248.77 C 1154.96 253.585 1158.58 257.635 1160.17 262.38 C 1161.24 265.575 1161.19 269.659 1161.22 273.036 C 1161.17 281.199 1162.65 292.928 1160.93 300.661 L 1160.13 300.171 L 1160 286.5 L 1157.24 286.016 C 1154.56 285.604 1152.26 284.952 1150.06 286.604 C 1151.49 290.443 1150.93 294.404 1150.72 298.424 C 1148.74 293.207 1148.71 286.921 1148.25 281.4 L 1146.11 257.702 C 1148.92 254.809 1150.8 251.414 1152.84 247.968 z"/>
<path transform="translate(0,0)" fill="rgb(73,141,190)" d="M 646.078 276.62 C 649.678 276.189 653.12 275.777 656.521 277.311 C 673.647 285.037 690.477 295.975 707 305.057 L 791.561 351.387 L 861.604 388.856 L 944.136 433.909 L 1009 469.779 C 1010.4 470.507 1029.04 480.474 1029.35 480.386 C 1029.8 480.256 1030.04 479.754 1030.39 479.44 C 1040.12 470.732 1052.84 465.052 1064.19 458.744 C 1090.06 444.373 1117.22 429.041 1144.63 417.98 L 1144.91 430.245 L 1144.74 433.703 C 1133.95 435.754 1124.31 439.634 1117.27 448.288 L 1117.02 448.362 C 1116.86 454.827 1116.83 460.479 1118.65 466.722 L 1115.73 469.38 C 1112.78 470.622 1109.58 471.724 1106.83 473.346 C 1094.15 481.101 1052.95 506.654 1039.93 506.043 C 1027.09 505.242 1014.11 497.313 1002.9 491.502 L 965.206 471.869 L 951.681 464.886 L 762.712 363.927 L 645.859 301.353 L 646.078 276.62 z"/>
<path transform="translate(0,0)" fill="rgb(71,104,141)" d="M 1039.93 506.043 C 1041.22 500.221 1040.44 493.976 1041.11 488.037 L 1117.02 448.362 C 1116.86 454.827 1116.83 460.479 1118.65 466.722 L 1115.73 469.38 C 1112.78 470.622 1109.58 471.724 1106.83 473.346 C 1094.15 481.101 1052.95 506.654 1039.93 506.043 z"/>
<path transform="translate(0,0)" fill="url(#Gradient3)" d="M 1428.42 270.155 C 1430.3 274.338 1431.59 277.851 1432.26 282.429 C 1432.58 288.093 1433.89 295.43 1431.71 300.745 C 1426.91 305.287 1420.13 308.141 1414.3 311.196 L 1382.08 327.899 L 1317.77 361.711 C 1313.37 363.749 1308.8 365.604 1304.81 368.383 L 1249.72 397.5 C 1236.28 404.533 1222.89 411.605 1210.09 419.752 C 1203.79 423.757 1196.94 427.972 1191.9 433.502 C 1187.41 450.018 1182.37 466.727 1178.98 483.5 C 1172.58 515.145 1169.87 546.11 1169.45 578.343 C 1169.31 588.509 1168.24 600.482 1169.83 610.441 C 1169.8 613.887 1168.74 627.387 1170.77 629.603 L 1171.96 696.612 C 1208.74 716.133 1243.42 740.471 1277.86 763.81 L 1377.81 831.242 L 1448.5 880.429 C 1461.25 889.557 1475.69 898.163 1486.31 909.817 L 1485.55 948.31 C 1485.49 957.479 1484.99 967.187 1486.13 976.274 C 1488.13 988.117 1488.41 1000.6 1491.54 1012.22 L 1486.91 1020.92 L 1460.95 1017.43 L 1438.52 1012.24 L 1434.95 1013.41 C 1422.85 1013.21 1411.09 1009.62 1398.89 1010.39 L 1387.97 1015.29 C 1375.58 1019.81 1363.14 1025.11 1350.28 1028.09 C 1346.55 1023.15 1342.92 1018.72 1337.6 1015.41 L 1336.59 1014.8 L 1333.19 1016.33 C 1318.66 1014.58 1304.53 1013.78 1289.87 1013.91 C 1279.45 1014.01 1268.67 1014.18 1259.21 1019.1 C 1258.3 1021.01 1257.27 1022.82 1256.85 1024.9 C 1255.89 1030.68 1261.33 1038.04 1263.31 1043.54 C 1271.09 1052.07 1279.49 1056.24 1289.99 1060.68 L 1288.47 1062.6 C 1286.57 1062.73 1284.24 1062.66 1282.41 1063.09 C 1266.96 1066.32 1252.02 1072.05 1236.95 1076.74 L 1183.01 1092.39 C 1174.24 1094.93 1163.51 1099.54 1154.47 1100.22 C 1138.74 1101.39 1124.32 1093.75 1108.99 1094.23 L 1109.34 1103.5 C 1104.32 1106.57 1097.22 1108 1091.56 1109.7 L 1050.38 1121.39 L 1043.72 1115.87 L 956.245 1054.33 C 955.844 1053.72 955.254 1053.2 955.041 1052.5 C 953.952 1048.93 956.273 1039.77 956.582 1035.56 L 957.711 1004.22 L 957.225 995.909 C 956.137 986.602 956.259 977.341 955.808 968 L 954.016 934.333 L 955.195 900.371 L 955.194 853.64 C 955.345 834.185 955.879 814.385 953.773 795.024 C 953.911 793.171 954.793 791.646 955.585 790 C 954.103 790.064 954.316 789.893 953.251 789 L 951.034 771 C 950.139 765.837 947.493 757.951 948.844 752.968 L 949.511 751.812 C 948.194 740.885 944.795 730.277 944.978 719.157 C 945.011 717.161 944.901 717.144 946.291 715.798 L 947.606 624.195 C 948.974 621.774 950.441 619.269 950.78 616.461 C 952.265 604.147 950.964 590.415 951.194 577.914 L 951.681 464.886 L 965.206 471.869 L 1002.9 491.502 C 1014.11 497.313 1027.09 505.242 1039.93 506.043 C 1052.95 506.654 1094.15 481.101 1106.83 473.346 C 1109.58 471.724 1112.78 470.622 1115.73 469.38 L 1118.65 466.722 C 1116.83 460.479 1116.86 454.827 1117.02 448.362 L 1117.27 448.288 C 1124.31 439.634 1133.95 435.754 1144.74 433.703 L 1144.91 430.245 C 1145.79 427.886 1147.35 417.774 1148.27 416.88 C 1151.23 413.989 1157.64 413.498 1161.04 410.864 L 1161.99 410.084 C 1167.3 409.47 1171.29 406.413 1175.72 403.683 L 1193.57 392.915 L 1223.08 376.511 L 1285.78 344.229 L 1389.25 290.968 L 1411 279.193 C 1416.79 275.866 1421.99 272.225 1428.42 270.155 z"/>
<path transform="translate(0,0)" fill="rgb(71,104,141)" d="M 1286.75 857.387 L 1292 857.025 C 1293.88 858.539 1294.2 858.742 1294.98 861 C 1292.58 863.102 1288.68 863.465 1285.65 864.154 L 1261.19 869.652 C 1228.59 876.486 1197.1 883.072 1165.5 893.886 C 1164.03 893.996 1163.04 893.899 1161.63 893.5 C 1159.07 884.099 1160.61 870.573 1160.54 860.676 C 1164.16 859.98 1172.8 864.151 1177.15 864.967 C 1184.53 866.352 1191.55 866.967 1199.04 867.047 C 1212.38 867.191 1225.8 865.125 1239.04 863.59 L 1286.75 857.387 z"/>
<path transform="translate(0,0)" fill="rgb(73,141,190)" d="M 1428.42 270.155 C 1430.3 274.338 1431.59 277.851 1432.26 282.429 C 1428.98 285.703 1425.69 289.214 1421.67 291.59 C 1396.97 306.215 1369.98 318.391 1344.39 331.496 L 1258.07 377.431 L 1212.09 402.225 C 1195.26 411.846 1179.27 421.66 1161.62 429.835 L 1161.99 410.084 C 1167.3 409.47 1171.29 406.413 1175.72 403.683 L 1193.57 392.915 L 1223.08 376.511 L 1285.78 344.229 L 1389.25 290.968 L 1411 279.193 C 1416.79 275.866 1421.99 272.225 1428.42 270.155 z"/>
<path transform="translate(0,0)" fill="rgb(255,255,255)" d="M 1161.99 410.084 L 1161.62 429.835 L 1161.28 447.065 L 1159.65 510.543 L 1156.2 545.958 C 1154.54 570.177 1154.38 596.281 1156.12 620.467 C 1150.02 617.717 1141.72 616.584 1135.13 615.119 L 1134.91 603.685 L 1134.25 603.881 C 1128.22 598.438 1121.16 595.22 1114.66 590.453 L 1111.17 589.353 L 1111.18 589.238 L 1106.24 585.877 L 1106.83 473.346 C 1109.58 471.724 1112.78 470.622 1115.73 469.38 L 1118.65 466.722 C 1116.83 460.479 1116.86 454.827 1117.02 448.362 L 1117.27 448.288 C 1124.31 439.634 1133.95 435.754 1144.74 433.703 L 1144.91 430.245 C 1145.79 427.886 1147.35 417.774 1148.27 416.88 C 1151.23 413.989 1157.64 413.498 1161.04 410.864 L 1161.99 410.084 z"/>
<path transform="translate(0,0)" fill="rgb(243,221,162)" d="M 1161.99 410.084 L 1161.62 429.835 L 1161.28 447.065 L 1160.6 429.351 L 1144.74 433.703 L 1144.91 430.245 C 1145.79 427.886 1147.35 417.774 1148.27 416.88 C 1151.23 413.989 1157.64 413.498 1161.04 410.864 L 1161.99 410.084 z"/>
<path transform="translate(0,0)" fill="rgb(243,221,162)" d="M 1118.65 466.722 C 1119.33 468.616 1119.91 469.985 1119.91 472.031 L 1121.15 472.809 C 1125.33 475.673 1126.66 484.727 1127.26 489.487 L 1133.78 561.062 C 1134.73 574.464 1136.8 590.511 1134.91 603.685 L 1134.25 603.881 C 1128.22 598.438 1121.16 595.22 1114.66 590.453 L 1111.17 589.353 L 1111.18 589.238 L 1106.24 585.877 L 1106.83 473.346 C 1109.58 471.724 1112.78 470.622 1115.73 469.38 L 1118.65 466.722 z"/>
<path transform="translate(0,0)" fill="rgb(127,86,17)" d="M 1106.83 473.346 C 1109.58 471.724 1112.78 470.622 1115.73 469.38 L 1114.66 590.453 L 1111.17 589.353 L 1111.18 589.238 L 1106.24 585.877 L 1106.83 473.346 z"/>
<path transform="translate(0,0)" fill="rgb(71,104,141)" d="M 1134.25 603.881 L 1134.91 603.685 L 1135.13 615.119 C 1141.72 616.584 1150.02 617.717 1156.12 620.467 L 1156.26 621.509 C 1157.66 632.589 1156.95 644.391 1157.05 655.566 L 1158.39 700.276 C 1158.71 708.915 1157.59 718.89 1161.22 726.855 C 1163.8 732.528 1164.55 738.713 1165.08 744.878 C 1165.27 747.106 1165.25 758.7 1166.13 760 C 1166.69 760.833 1167.71 761.244 1168.5 761.866 C 1179.22 763.614 1188.23 759.68 1198.5 757.142 C 1200.73 756.59 1205.37 755.145 1207.57 755.5 C 1209.04 755.737 1212.88 758.457 1213.88 759.39 C 1218.93 761.707 1224.16 763.675 1229.05 766.319 C 1246.09 775.55 1262.39 786.667 1278.33 797.673 C 1283.71 801.389 1293.18 806.22 1295.57 812.497 L 1295.9 813.5 C 1295.43 813.992 1295.09 814.636 1294.5 814.976 C 1293.51 815.546 1289.9 815.634 1288.66 815.817 L 1273.95 818.26 L 1186.58 834.804 L 1175.31 790.246 C 1174.02 785.586 1173.1 778.384 1170.02 774.765 C 1166.82 774.408 1163.92 774.63 1160.73 774.997 L 1160.47 855.286 C 1155.76 843.943 1155.42 831.137 1153.73 819.141 L 1146.07 766.277 L 1141.79 704.511 C 1138.85 670.425 1132.81 638.32 1134.25 603.881 z"/>
<path transform="translate(0,0)" fill="rgb(71,104,141)" d="M 1326.13 960.218 L 1326.26 966.123 L 1326.66 996.013 C 1326.82 1000.64 1326.48 1005.47 1328.5 1009.72 C 1331.14 1011.61 1333.7 1013.33 1336.59 1014.8 L 1333.19 1016.33 C 1318.66 1014.58 1304.53 1013.78 1289.87 1013.91 C 1279.45 1014.01 1268.67 1014.18 1259.21 1019.1 C 1258.3 1021.01 1257.27 1022.82 1256.85 1024.9 C 1255.89 1030.68 1261.33 1038.04 1263.31 1043.54 L 1166.5 1071.68 C 1165.83 1070.96 1164.92 1070.41 1164.5 1069.53 C 1162.65 1065.64 1164.23 999.762 1164.22 990.698 C 1168.08 988.239 1175.74 987.529 1180.28 986.415 C 1228.35 974.63 1277.72 970.193 1326.13 960.218 z"/>
<path transform="translate(0,0)" fill="rgb(36,65,91)" d="M 1259.21 1019.1 L 1247.5 1018.94 C 1240.37 1018.23 1236.9 1014.82 1232.5 1009.68 C 1231.85 1006.83 1231.81 1004.69 1233.09 1002 C 1234.89 998.24 1238.34 993.91 1241.91 991.658 C 1255.83 982.867 1276.95 980.256 1292.88 976.158 L 1326.26 966.123 L 1326.66 996.013 C 1326.82 1000.64 1326.48 1005.47 1328.5 1009.72 C 1331.14 1011.61 1333.7 1013.33 1336.59 1014.8 L 1333.19 1016.33 C 1318.66 1014.58 1304.53 1013.78 1289.87 1013.91 C 1279.45 1014.01 1268.67 1014.18 1259.21 1019.1 z"/>
<path transform="translate(0,0)" fill="rgb(71,104,141)" d="M 1326.22 953.175 C 1311.39 954.438 1296.39 958.588 1281.69 961.033 C 1251 966.137 1220.61 969.301 1189.48 969.494 C 1182.06 969.54 1171.52 970.484 1164.56 968.114 L 1163.72 910.004 L 1369.59 855.79 L 1431.5 895.925 C 1440.51 901.922 1454.7 909.16 1460.96 917.687 L 1463 983.957 L 1486.13 976.274 C 1488.13 988.117 1488.41 1000.6 1491.54 1012.22 L 1486.91 1020.92 L 1460.95 1017.43 L 1438.52 1012.24 L 1434.95 1013.41 C 1422.85 1013.21 1411.09 1009.62 1398.89 1010.39 L 1387.97 1015.29 C 1375.58 1019.81 1363.14 1025.11 1350.28 1028.09 C 1346.55 1023.15 1342.92 1018.72 1337.6 1015.41 L 1336.59 1014.8 C 1333.7 1013.33 1331.14 1011.61 1328.5 1009.72 C 1326.48 1005.47 1326.82 1000.64 1326.66 996.013 L 1326.26 966.123 L 1326.13 960.218 L 1326.22 953.175 z"/>
<path transform="translate(0,0)" fill="rgb(36,65,91)" d="M 1399.63 966.815 L 1400.65 963.5 C 1409.61 962.662 1443 977.199 1450.76 983.519 L 1453.82 986.286 C 1435.86 992.267 1417.72 994.255 1399.08 996.866 L 1399.63 966.815 z"/>
<path transform="translate(0,0)" fill="rgb(221,163,126)" d="M 1486.13 976.274 C 1488.13 988.117 1488.41 1000.6 1491.54 1012.22 L 1486.91 1020.92 L 1460.95 1017.43 L 1438.52 1012.24 L 1434.95 1013.41 C 1422.85 1013.21 1411.09 1009.62 1398.89 1010.39 L 1399.34 1001.73 L 1399.08 996.866 C 1417.72 994.255 1435.86 992.267 1453.82 986.286 L 1463 983.957 L 1486.13 976.274 z"/>
<path transform="translate(0,0)" fill="rgb(36,65,91)" d="M 1399.34 1001.73 C 1411.67 1003.53 1427.39 1006.5 1438.52 1012.24 L 1434.95 1013.41 C 1422.85 1013.21 1411.09 1009.62 1398.89 1010.39 L 1399.34 1001.73 z"/>
<path transform="translate(0,0)" fill="rgb(183,197,208)" d="M 1326.82 946.901 C 1326.79 945.299 1327.06 944.085 1327.5 942.547 C 1334.26 940.565 1341.41 940.203 1348.27 938.215 C 1359.92 934.837 1371.23 929.829 1383.03 927.059 C 1388.55 928.721 1394.29 930.405 1398.1 934.988 C 1401.68 943.352 1398.22 957.464 1399.63 966.815 L 1399.08 996.866 L 1399.34 1001.73 L 1398.89 1010.39 L 1387.97 1015.29 C 1375.58 1019.81 1363.14 1025.11 1350.28 1028.09 C 1346.55 1023.15 1342.92 1018.72 1337.6 1015.41 L 1336.59 1014.8 C 1333.7 1013.33 1331.14 1011.61 1328.5 1009.72 C 1326.48 1005.47 1326.82 1000.64 1326.66 996.013 L 1326.26 966.123 L 1326.13 960.218 L 1326.22 953.175 L 1326.82 946.901 z"/>
<path transform="translate(0,0)" fill="rgb(255,255,255)" d="M 1326.82 946.901 C 1326.79 945.299 1327.06 944.085 1327.5 942.547 C 1334.26 940.565 1341.41 940.203 1348.27 938.215 C 1359.92 934.837 1371.23 929.829 1383.03 927.059 C 1388.55 928.721 1394.29 930.405 1398.1 934.988 C 1397.61 935.813 1397.37 936.859 1396.62 937.462 C 1393.17 940.251 1381.52 941.879 1377 943.052 L 1349 951.003 C 1343.58 952.35 1332.61 956.055 1327.5 954.391 L 1326.82 946.901 z"/>
<path transform="translate(0,0)" fill="rgb(208,177,64)" d="M 951.681 464.886 L 965.206 471.869 L 1002.9 491.502 C 1014.11 497.313 1027.09 505.242 1039.93 506.043 C 1052.95 506.654 1094.15 481.101 1106.83 473.346 L 1106.24 585.877 L 1111.18 589.238 L 1111.17 589.353 C 1108.42 594.815 1109.41 609.856 1110.31 616.135 C 1112.14 624.468 1111.03 634.915 1111.03 643.489 L 1109.46 722.952 L 1108.92 727.637 L 1108.81 811.144 L 1108.99 1094.23 L 1109.34 1103.5 C 1104.32 1106.57 1097.22 1108 1091.56 1109.7 L 1050.38 1121.39 L 1043.72 1115.87 L 956.245 1054.33 C 955.844 1053.72 955.254 1053.2 955.041 1052.5 C 953.952 1048.93 956.273 1039.77 956.582 1035.56 L 957.711 1004.22 L 957.225 995.909 C 956.137 986.602 956.259 977.341 955.808 968 L 954.016 934.333 L 955.195 900.371 L 955.194 853.64 C 955.345 834.185 955.879 814.385 953.773 795.024 C 953.911 793.171 954.793 791.646 955.585 790 C 954.103 790.064 954.316 789.893 953.251 789 L 951.034 771 C 950.139 765.837 947.493 757.951 948.844 752.968 L 949.511 751.812 C 948.194 740.885 944.795 730.277 944.978 719.157 C 945.011 717.161 944.901 717.144 946.291 715.798 L 947.606 624.195 C 948.974 621.774 950.441 619.269 950.78 616.461 C 952.265 604.147 950.964 590.415 951.194 577.914 L 951.681 464.886 z"/>
<path transform="translate(0,0)" fill="rgb(195,120,77)" d="M 1011.01 692.009 L 1024.03 697.256 L 1019.5 699.331 C 1021.71 703.863 1025.8 708.047 1024.01 713.387 C 1023.25 715.659 1020.46 717.878 1018.33 718.968 C 1013.19 721.602 1005.59 720.412 999.867 722.161 L 997.431 719.174 C 999.906 719.498 1000.85 719.097 1003.03 718.098 C 1005 717.976 1006.68 717.336 1008.4 716.379 C 1011.6 714.591 1016.29 709.799 1017.11 706.101 C 1018.14 701.448 1013.49 695.642 1011.01 692.009 z"/>
<path transform="translate(0,0)" fill="rgb(155,117,85)" d="M 998.223 661.709 C 1002.38 665.056 1002.86 671.317 1003.41 676.357 L 1003.52 677.402 C 1010 683.843 1016.24 688.455 1024.51 692.391 L 1025.45 691.731 C 1026.88 694.458 1028.29 696.876 1028.62 700 C 1026.91 699.302 1025.55 698.294 1024.03 697.256 L 1011.01 692.009 L 992.541 685.538 L 991.604 682.971 C 993.921 680.255 996.182 680.037 999.51 679.591 L 1000.22 679.5 C 1000.33 673.603 999.076 667.541 998.223 661.709 z"/>
<path transform="translate(0,0)" fill="rgb(112,85,43)" d="M 998.223 661.709 L 995.484 642.2 C 1004.62 650.362 1009.32 659.731 1015.07 670.28 C 1018.86 677.219 1022.85 684.242 1025.45 691.731 L 1024.51 692.391 C 1016.24 688.455 1010 683.843 1003.52 677.402 L 1003.41 676.357 C 1002.86 671.317 1002.38 665.056 998.223 661.709 z"/>
<path transform="translate(0,0)" fill="rgb(112,85,43)" d="M 1039.03 764.919 L 1039.99 765.055 L 1055.55 786.399 C 1058.77 790.82 1062.62 795.636 1064.03 801 C 1063.45 803.781 1062.75 804.828 1060.17 806.288 C 1057.4 807.853 1053.11 807.747 1050 807.829 L 1042.85 804.157 L 1040.79 799.785 C 1041.27 795.014 1041.29 792.127 1039.17 787.765 C 1035.73 780.674 1036.01 774.173 1036.22 766.5 L 1039.03 764.919 z"/>
<path transform="translate(0,0)" fill="rgb(221,163,126)" d="M 991.092 683.063 L 991.604 682.971 L 992.541 685.538 L 1011.01 692.009 C 1013.49 695.642 1018.14 701.448 1017.11 706.101 C 1016.29 709.799 1011.6 714.591 1008.4 716.379 C 1006.68 717.336 1005 717.976 1003.03 718.098 C 1002.09 717.925 1001.35 717.696 1000.52 717.224 C 998.932 716.334 997.667 715.604 995.846 715.218 L 995 715.048 C 988.484 713.651 981.866 713.829 975.281 712.962 C 972.039 712.535 970.148 709.743 968.335 707.293 L 967.763 706.5 L 963.114 706.693 C 966.615 702.995 970.136 698.888 974.09 695.684 C 978.438 692.16 984.265 690.198 987.723 685.741 C 988.547 684.592 989.932 683.864 991.092 683.063 z"/>
<path transform="translate(0,0)" fill="rgb(127,86,17)" d="M 996.932 728.852 C 1008.73 731.854 1019.83 743.911 1028.1 752.507 C 1031.81 756.355 1036.11 760.467 1039.03 764.919 L 1036.22 766.5 C 1036.01 774.173 1035.73 780.674 1039.17 787.765 C 1041.29 792.127 1041.27 795.014 1040.79 799.785 C 1036.95 795.239 1033.37 797.616 1029.15 795.221 C 1028.07 794.611 1026.38 792.252 1025.58 791.251 C 1019.74 783.957 1015.49 773.713 1011.05 765.42 C 1004.47 753.141 997.554 741.954 989.15 730.821 L 996.932 728.852 z"/>
<path transform="translate(0,0)" fill="rgb(217,151,111)" d="M 963.114 706.693 L 967.763 706.5 L 968.335 707.293 C 970.148 709.743 972.039 712.535 975.281 712.962 C 981.866 713.829 988.484 713.651 995 715.048 L 995.846 715.218 C 997.667 715.604 998.932 716.334 1000.52 717.224 C 1001.35 717.696 1002.09 717.925 1003.03 718.098 C 1000.85 719.097 999.906 719.498 997.431 719.174 L 999.867 722.161 C 998.018 723.777 995.337 725.577 994.157 727.719 L 996.932 728.852 L 989.15 730.821 C 986.828 730.775 985.018 731.743 982.946 732.657 L 963.069 744.686 L 954.847 749.673 L 949.511 751.812 C 948.194 740.885 944.795 730.277 944.978 719.157 C 945.011 717.161 944.901 717.144 946.291 715.798 L 948.219 715.244 C 954.519 713.551 958.299 710.862 963.114 706.693 z"/>
<path transform="translate(0,0)" fill="rgb(195,120,77)" d="M 988.069 721.677 C 991.423 719.378 993.39 718.998 997.431 719.174 L 999.867 722.161 C 998.018 723.777 995.337 725.577 994.157 727.719 L 996.932 728.852 L 989.15 730.821 C 986.828 730.775 985.018 731.743 982.946 732.657 L 963.069 744.686 C 965.495 735.877 980.45 726.27 988.069 721.677 z"/>
<path transform="translate(0,0)" fill="rgb(155,117,85)" d="M 988.069 721.677 C 991.423 719.378 993.39 718.998 997.431 719.174 L 999.867 722.161 C 998.018 723.777 995.337 725.577 994.157 727.719 L 996.932 728.852 L 989.15 730.821 C 986.828 730.775 985.018 731.743 982.946 732.657 C 982.979 728.455 985.851 725.092 988.069 721.677 z"/>
<path transform="translate(0,0)" fill="rgb(223,178,17)" d="M 982.946 732.657 C 985.018 731.743 986.828 730.775 989.15 730.821 C 997.554 741.954 1004.47 753.141 1011.05 765.42 C 1015.49 773.713 1019.74 783.957 1025.58 791.251 C 1026.38 792.252 1028.07 794.611 1029.15 795.221 C 1033.37 797.616 1036.95 795.239 1040.79 799.785 L 1042.85 804.157 L 1042.73 808.029 L 1041.98 810.67 L 983.066 770.355 C 973.739 763.698 965.573 753.757 954.847 749.673 L 963.069 744.686 L 982.946 732.657 z"/>
<path transform="translate(0,0)" fill="rgb(150,120,27)" d="M 1075.13 750.155 L 1076.01 737.073 L 1108.92 727.637 L 1108.81 811.144 L 1075.01 794.22 L 1075.13 750.155 z"/>
<path transform="translate(0,0)" fill="rgb(223,178,17)" d="M 951.681 464.886 L 965.206 471.869 L 966.87 599.949 L 967.134 646.034 C 967.174 649.451 966.76 658.575 968.168 661.433 C 969.171 663.467 971.651 666.155 973.227 667.794 L 983.697 677.009 L 982.792 678.663 L 974 673.199 L 972.824 674.5 C 973.563 679.145 976.758 682.001 980.417 684.713 C 981.678 685.648 985.995 685.585 987.723 685.741 C 984.265 690.198 978.438 692.16 974.09 695.684 C 970.136 698.888 966.615 702.995 963.114 706.693 C 958.299 710.862 954.519 713.551 948.219 715.244 L 946.291 715.798 L 947.606 624.195 C 948.974 621.774 950.441 619.269 950.78 616.461 C 952.265 604.147 950.964 590.415 951.194 577.914 L 951.681 464.886 z"/>
<path transform="translate(0,0)" fill="rgb(150,120,27)" d="M 1077.92 565.837 C 1081.62 566.409 1102.12 582.661 1106.24 585.877 L 1111.18 589.238 L 1111.17 589.353 C 1108.42 594.815 1109.41 609.856 1110.31 616.135 C 1112.14 624.468 1111.03 634.915 1111.03 643.489 L 1109.46 722.952 C 1097.95 724.674 1086.95 728.832 1075.72 731.835 C 1076.65 719.012 1076 705.624 1076.15 692.739 L 1076.91 612.879 L 1076.93 581.862 C 1076.94 576.705 1076.27 570.759 1077.92 565.837 z"/>
<path transform="translate(0,0)" fill="rgb(36,65,91)" d="M 1077.92 565.837 C 1081.62 566.409 1102.12 582.661 1106.24 585.877 L 1111.18 589.238 L 1111.17 589.353 C 1108.42 594.815 1109.41 609.856 1110.31 616.135 L 1077.58 589.505 L 1077.92 565.837 z"/>
<path transform="translate(0,0)" fill="rgb(71,104,141)" d="M 826.51 739.049 L 829.923 738.261 C 831.874 742.437 831.053 750.583 830.094 755.197 C 828.242 770.201 828.959 785.554 829.054 800.646 C 829.087 805.883 828.251 813.172 829.639 818.186 C 847.222 828.509 871.024 829.075 890.688 826.574 C 911.475 823.93 940.685 811.736 953.773 795.024 C 955.879 814.385 955.345 834.185 955.194 853.64 L 955.195 900.371 L 954.016 934.333 L 955.808 968 C 956.259 977.341 956.137 986.602 957.225 995.909 L 957.711 1004.22 L 956.582 1035.56 C 956.273 1039.77 953.952 1048.93 955.041 1052.5 C 955.254 1053.2 955.844 1053.72 956.245 1054.33 C 960.434 1084.71 952.741 1117.17 951.915 1147.73 C 948.706 1163.39 953.703 1180.49 948.807 1195.95 C 948.576 1211.89 947.478 1236 959.257 1247.98 L 971.804 1259 C 968.242 1261.29 964.012 1263.04 960.652 1265.47 L 935.896 1272.26 L 936.928 1272.45 C 943.334 1273.55 949.342 1271.83 955.706 1271.02 C 959.398 1270.55 963.808 1269.88 967.496 1270.55 C 977.714 1272.4 990.672 1284.48 996.649 1292.79 L 1000.24 1298.22 C 1000.11 1284.51 997.965 1266.78 1002.57 1253.86 C 1005.55 1263.23 1004.92 1274.01 1004.92 1283.75 L 1004.58 1324.48 C 1004.48 1329.1 1003.11 1338.35 1004.88 1342.2 C 999.55 1343.99 985.967 1337.32 980.183 1335.21 L 717.635 1197.36 C 719.308 1187.33 718.746 1174.96 717.401 1164.89 L 680.309 1176.87 L 566.624 1211.64 C 553.604 1215.43 540.642 1220.34 527.424 1223.33 C 521.561 1224.66 515.375 1223.99 509.419 1224.5 C 505.82 1224.81 501.049 1226.67 497.709 1225.07 L 429.554 1193.82 L 344.702 1152.93 L 344.236 1153.05 C 341.851 1159.43 342.217 1166.47 339.925 1172.87 C 338.161 1175.84 336.711 1178.25 333.916 1180.4 L 325.076 1183.27 L 319.714 1180.37 C 312.87 1181.62 306.808 1184.48 301.077 1188.38 C 294.55 1192.04 291.09 1193.08 283.664 1193.15 L 283.622 1190.26 C 283.472 1187.82 283.654 1184.41 282.515 1182.22 C 281.827 1180.9 278.582 1179.39 277.235 1178.56 C 272.53 1175.64 266.776 1172.65 263.132 1168.44 C 262.027 1167.16 260.027 1165.02 259.384 1163.49 C 258.201 1160.66 258.355 1155.38 258.417 1152.35 L 259.749 1127.24 L 260.129 1103.34 C 264.918 1100.08 267.914 1089.55 270.847 1084.31 C 274.874 1077.11 279.16 1070.15 284.179 1063.6 C 291.218 1054.41 300.214 1046.87 308.576 1038.94 C 319.752 1028.34 330.745 1017.37 340.276 1005.24 C 354.762 986.815 369.491 967.617 382.325 948.003 C 391.338 934.229 398.112 919.162 409.047 906.736 C 408.867 909.181 408.388 911.96 408.649 914.389 C 418.444 919.792 429.193 926.221 440.106 928.79 C 442.577 930.725 445.091 932.531 447.879 933.988 C 461.574 941.143 488.214 938.291 502.393 933.918 C 514.797 930.092 528.542 922.524 534.5 910.403 C 537.468 904.365 538.669 894.139 536.08 887.726 C 532.085 877.832 521.553 876.156 512.973 872.147 C 516.377 866.251 514.968 856.726 515.068 849.859 L 602.961 826.374 L 659.921 867.788 L 716.977 905.348 L 740.204 920.151 C 743.06 922.095 746.891 924.196 749.128 926.778 L 752.031 928.111 L 770.993 942.024 L 771.314 885.082 L 771.859 884.727 C 771.165 876.238 772.584 866.624 773.046 858.063 C 772.768 854.562 773.276 849.602 772.179 846.39 L 771.826 845.497 C 771.335 843.489 771.442 843.101 772.51 841.5 L 774.25 841.75 C 774.323 840.383 774.233 839.269 775.021 838.083 C 776.517 835.833 775.065 834.003 774.51 832 C 773.599 828.71 775.421 823.79 774.51 820.5 C 773.326 816.225 774.603 811.446 773.51 807.5 C 772.465 803.727 771.542 796.83 771.931 792.705 C 772.584 785.784 771.609 778.161 771.458 771.15 L 771.884 746.65 L 772.792 746.894 C 776.7 742.648 781.458 742.153 787 741.962 C 799.203 741.539 811.175 742.883 822.739 746.988 C 824.139 744.438 824.186 740.944 826.51 739.049 z"/>
<path transform="translate(0,0)" fill="rgb(255,255,255)" d="M 773.046 858.063 L 773.961 855.485 C 775.283 852.977 776.842 853.196 779.347 852.648 C 779.174 862.23 777.785 871.087 777.088 880.509 L 775.217 882.809 C 775.623 885.594 775.747 888.612 777.434 890.947 C 778.758 903.492 778.239 916.519 778.374 929.137 C 778.431 934.456 779.356 941.401 778.372 946.509 C 776.535 962.815 778.138 981.189 778.138 997.719 L 777.923 1105.36 C 777.9 1118.39 779.368 1133.05 777.779 1145.9 C 777.424 1148.77 776.818 1150.29 774.973 1152.5 C 772.099 1152.81 771.883 1152.4 769.5 1150.96 C 766.814 1144.09 769.744 1131.16 770.41 1123.64 C 771.007 1116.91 770.937 1110.16 770.95 1103.41 L 770.993 942.024 L 771.314 885.082 L 771.859 884.727 C 771.165 876.238 772.584 866.624 773.046 858.063 z"/>
<path transform="translate(0,0)" fill="rgb(39,75,107)" d="M 749.128 926.778 L 752.031 928.111 C 742.926 935.161 735.491 945.062 726.326 951.487 C 707.653 964.577 681.833 965.237 661.4 974.327 C 655.53 971.068 646.72 972.083 640.058 970.946 C 632.947 969.732 627.283 967.08 621.021 963.601 L 749.128 926.778 z"/>
<path transform="translate(0,0)" fill="rgb(39,75,107)" d="M 593.072 973.01 L 629 974.95 C 635.805 975.328 644.757 974.563 650.928 977.79 L 592.243 995.774 C 578.283 999.931 564.382 1005.18 550.006 1007.66 C 528.708 1011.32 505.723 1009.67 487.634 996.968 C 490.94 993.88 503.274 991.565 508.003 990.333 C 536.362 982.944 563.957 976.482 593.072 973.01 z"/>
<path transform="translate(0,0)" fill="rgb(73,141,190)" d="M 260.129 1103.34 C 264.918 1100.08 267.914 1089.55 270.847 1084.31 C 274.874 1077.11 279.16 1070.15 284.179 1063.6 C 291.218 1054.41 300.214 1046.87 308.576 1038.94 C 319.752 1028.34 330.745 1017.37 340.276 1005.24 C 354.762 986.815 369.491 967.617 382.325 948.003 C 391.338 934.229 398.112 919.162 409.047 906.736 C 408.867 909.181 408.388 911.96 408.649 914.389 C 407.763 929.98 403.386 944.243 398.976 959.138 C 391.556 984.193 382.909 1008.08 372.488 1032.02 C 366.852 1039.27 362.554 1047.75 357.698 1055.55 L 332.468 1094.61 C 322.007 1110.3 308.286 1124.72 299.616 1141.39 C 294.758 1150.73 293.031 1158.07 291.762 1168.46 L 324.367 1154.16 C 330.301 1152.05 335.707 1151.6 341.952 1151.65 L 344.236 1153.05 C 341.851 1159.43 342.217 1166.47 339.925 1172.87 C 338.161 1175.84 336.711 1178.25 333.916 1180.4 L 325.076 1183.27 L 319.714 1180.37 C 312.87 1181.62 306.808 1184.48 301.077 1188.38 C 294.55 1192.04 291.09 1193.08 283.664 1193.15 L 283.622 1190.26 C 283.472 1187.82 283.654 1184.41 282.515 1182.22 C 281.827 1180.9 278.582 1179.39 277.235 1178.56 C 272.53 1175.64 266.776 1172.65 263.132 1168.44 C 262.027 1167.16 260.027 1165.02 259.384 1163.49 C 258.201 1160.66 258.355 1155.38 258.417 1152.35 L 259.749 1127.24 L 260.129 1103.34 z"/>
<path transform="translate(0,0)" fill="rgb(139,169,192)" d="M 323.814 1177.03 L 324.895 1176.5 L 326.701 1175.65 C 331.584 1173.16 334.402 1172.7 339.925 1172.87 C 338.161 1175.84 336.711 1178.25 333.916 1180.4 L 325.076 1183.27 L 319.714 1180.37 L 323.814 1177.03 z"/>
<path transform="translate(0,0)" fill="rgb(71,104,141)" d="M 283.622 1190.26 C 291.261 1182.89 298.878 1180 308.969 1177.17 C 313.468 1175.91 319.578 1174.61 323.814 1177.03 L 319.714 1180.37 C 312.87 1181.62 306.808 1184.48 301.077 1188.38 C 294.55 1192.04 291.09 1193.08 283.664 1193.15 L 283.622 1190.26 z"/>
<path transform="translate(0,0)" fill="rgb(36,65,91)" d="M 496.727 1147.96 C 504.923 1143.43 514.405 1140.79 523.196 1137.55 L 574.086 1119.22 L 654.209 1091.54 C 674.127 1084.71 694.494 1077.16 715.068 1072.62 C 718.337 1071.89 722.705 1071.4 726 1072.17 C 727.637 1072.56 728.564 1073.27 729.872 1074.24 L 730.91 1074.98 C 739.879 1081.51 741.453 1091.72 742.938 1102 L 745.386 1123.46 C 736.844 1125.8 721.399 1129.74 716.408 1137.5 C 715.989 1145.69 715.462 1156.95 717.401 1164.89 L 680.309 1176.87 L 566.624 1211.64 C 553.604 1215.43 540.642 1220.34 527.424 1223.33 C 521.561 1224.66 515.375 1223.99 509.419 1224.5 C 505.82 1224.81 501.049 1226.67 497.709 1225.07 C 498.734 1215.25 498.194 1204.73 498.278 1194.84 C 498.409 1179.44 499.069 1163.2 496.727 1147.96 z"/>
<path transform="translate(0,0)" fill="rgb(73,141,190)" d="M 826.51 739.049 L 829.923 738.261 C 831.874 742.437 831.053 750.583 830.094 755.197 C 828.242 770.201 828.959 785.554 829.054 800.646 C 829.087 805.883 828.251 813.172 829.639 818.186 C 847.222 828.509 871.024 829.075 890.688 826.574 C 911.475 823.93 940.685 811.736 953.773 795.024 C 955.879 814.385 955.345 834.185 955.194 853.64 L 955.195 900.371 L 954.016 934.333 L 955.808 968 C 956.259 977.341 956.137 986.602 957.225 995.909 L 957.711 1004.22 L 956.582 1035.56 C 956.273 1039.77 953.952 1048.93 955.041 1052.5 C 955.254 1053.2 955.844 1053.72 956.245 1054.33 C 960.434 1084.71 952.741 1117.17 951.915 1147.73 C 948.706 1163.39 953.703 1180.49 948.807 1195.95 C 948.576 1211.89 947.478 1236 959.257 1247.98 L 971.804 1259 C 968.242 1261.29 964.012 1263.04 960.652 1265.47 L 935.896 1272.26 C 926.931 1268.49 916.179 1260.7 911.754 1251.86 C 905.864 1240.09 906.016 1224.48 904.591 1211.55 C 904.257 1208.52 904.568 1204.88 902.5 1202.63 C 900.41 1204.26 897.987 1205.85 895.5 1206.79 C 886.166 1210.33 876.434 1209.35 867.5 1205.18 C 862.373 1202.78 856.943 1198.85 855.081 1193.29 C 853.831 1189.56 853.525 1185.82 855.258 1182.25 C 863.796 1174.87 881.897 1172.44 892.645 1169.58 C 890.6 1160.4 887.337 1151.64 885.046 1142.54 C 881.995 1130.43 879.924 1117.86 878.079 1105.5 C 877.251 1099.96 877.817 1082.27 875 1078.91 L 871.153 1078.87 C 869.624 1079.35 868.092 1079.77 866.5 1079.98 C 863.982 1080.3 859.35 1080.63 857.5 1078.79 C 851.368 1072.71 840.035 1031.65 839.333 1022.15 L 824.725 974.254 L 778.372 946.509 C 779.356 941.401 778.431 934.456 778.374 929.137 C 778.239 916.519 778.758 903.492 777.434 890.947 C 775.747 888.612 775.623 885.594 775.217 882.809 L 777.088 880.509 C 777.785 871.087 779.174 862.23 779.347 852.648 C 776.842 853.196 775.283 852.977 773.961 855.485 L 773.046 858.063 C 772.768 854.562 773.276 849.602 772.179 846.39 L 771.826 845.497 C 771.335 843.489 771.442 843.101 772.51 841.5 L 774.25 841.75 C 774.323 840.383 774.233 839.269 775.021 838.083 C 776.517 835.833 775.065 834.003 774.51 832 C 773.599 828.71 775.421 823.79 774.51 820.5 C 773.326 816.225 774.603 811.446 773.51 807.5 C 772.465 803.727 771.542 796.83 771.931 792.705 C 772.584 785.784 771.609 778.161 771.458 771.15 L 771.884 746.65 L 772.792 746.894 C 776.7 742.648 781.458 742.153 787 741.962 C 799.203 741.539 811.175 742.883 822.739 746.988 C 824.139 744.438 824.186 740.944 826.51 739.049 z"/>
<path transform="translate(0,0)" fill="rgb(139,169,192)" d="M 834.284 977.511 C 837.86 978.522 839.856 980.501 842.969 982.274 L 859.308 990.933 C 862.19 992.635 866.052 995.719 869.373 996.129 C 871.983 1013.76 874.601 1034.44 882.13 1050.66 L 874.889 1070 C 874.076 1072.52 873.312 1077.25 871.153 1078.87 C 869.624 1079.35 868.092 1079.77 866.5 1079.98 C 863.982 1080.3 859.35 1080.63 857.5 1078.79 C 851.368 1072.71 840.035 1031.65 839.333 1022.15 L 840.426 1020.38 C 841.2 1005.11 837.94 992.202 834.284 977.511 z"/>
<path transform="translate(0,0)" fill="rgb(208,177,64)" d="M 826.51 739.049 L 829.923 738.261 C 831.874 742.437 831.053 750.583 830.094 755.197 C 828.242 770.201 828.959 785.554 829.054 800.646 C 829.087 805.883 828.251 813.172 829.639 818.186 C 830.349 830.303 830.844 842.849 833.457 854.725 C 835.905 865.847 840.694 876.058 844.497 886.715 C 848.397 897.643 851.339 909.089 854.512 920.253 L 855.814 924.824 C 859.44 931.333 860.192 940.077 861.542 947.375 L 869.373 996.129 C 866.052 995.719 862.19 992.635 859.308 990.933 L 842.969 982.274 C 839.856 980.501 837.86 978.522 834.284 977.511 C 837.94 992.202 841.2 1005.11 840.426 1020.38 L 839.333 1022.15 L 824.725 974.254 L 778.372 946.509 C 779.356 941.401 778.431 934.456 778.374 929.137 C 778.239 916.519 778.758 903.492 777.434 890.947 C 775.747 888.612 775.623 885.594 775.217 882.809 L 777.088 880.509 C 777.785 871.087 779.174 862.23 779.347 852.648 C 776.842 853.196 775.283 852.977 773.961 855.485 L 773.046 858.063 C 772.768 854.562 773.276 849.602 772.179 846.39 L 771.826 845.497 C 771.335 843.489 771.442 843.101 772.51 841.5 L 774.25 841.75 C 774.323 840.383 774.233 839.269 775.021 838.083 C 776.517 835.833 775.065 834.003 774.51 832 C 773.599 828.71 775.421 823.79 774.51 820.5 C 773.326 816.225 774.603 811.446 773.51 807.5 C 772.465 803.727 771.542 796.83 771.931 792.705 C 772.584 785.784 771.609 778.161 771.458 771.15 L 771.884 746.65 L 772.792 746.894 C 776.7 742.648 781.458 742.153 787 741.962 C 799.203 741.539 811.175 742.883 822.739 746.988 C 824.139 744.438 824.186 740.944 826.51 739.049 z"/>
<path transform="translate(0,0)" fill="rgb(139,169,192)" d="M 775.217 882.809 L 777.088 880.509 L 798.654 892.692 L 801.57 896.3 L 799.097 895.983 C 793.87 897.169 782.751 892.486 777.434 890.947 C 775.747 888.612 775.623 885.594 775.217 882.809 z"/>
<path transform="translate(0,0)" fill="rgb(255,255,255)" d="M 799.097 895.983 L 801.57 896.3 L 806.243 900.149 C 818.823 924.318 825.519 951.731 834.284 977.511 C 837.94 992.202 841.2 1005.11 840.426 1020.38 L 839.333 1022.15 L 824.725 974.254 C 823.156 964.878 818.054 955.485 815.065 946.396 L 799.097 895.983 z"/>
<path transform="translate(0,0)" fill="rgb(208,177,64)" d="M 777.434 890.947 C 782.751 892.486 793.87 897.169 799.097 895.983 L 815.065 946.396 C 818.054 955.485 823.156 964.878 824.725 974.254 L 778.372 946.509 C 779.356 941.401 778.431 934.456 778.374 929.137 C 778.239 916.519 778.758 903.492 777.434 890.947 z"/>
<path transform="translate(0,0)" fill="rgb(217,151,111)" d="M 772.792 746.894 C 776.7 742.648 781.458 742.153 787 741.962 C 799.203 741.539 811.175 742.883 822.739 746.988 L 823.244 747.775 L 818.078 760.68 C 816.77 774.19 815.655 787.772 811.39 800.744 C 808.516 809.484 802.782 816.769 799.736 825.206 C 798.22 829.406 798.132 835.503 798.023 839.974 C 796.564 843.852 793.94 846.363 790.224 848.093 C 787.662 849.286 780.206 850.648 779.347 852.648 C 776.842 853.196 775.283 852.977 773.961 855.485 L 773.046 858.063 C 772.768 854.562 773.276 849.602 772.179 846.39 L 771.826 845.497 C 771.335 843.489 771.442 843.101 772.51 841.5 L 774.25 841.75 C 774.323 840.383 774.233 839.269 775.021 838.083 C 776.517 835.833 775.065 834.003 774.51 832 C 773.599 828.71 775.421 823.79 774.51 820.5 C 773.326 816.225 774.603 811.446 773.51 807.5 C 772.465 803.727 771.542 796.83 771.931 792.705 C 772.584 785.784 771.609 778.161 771.458 771.15 L 771.884 746.65 L 772.792 746.894 z"/>
<path transform="translate(0,0)" fill="rgb(255,255,255)" d="M 772.792 746.894 C 776.7 742.648 781.458 742.153 787 741.962 C 799.203 741.539 811.175 742.883 822.739 746.988 L 823.244 747.775 L 818.078 760.68 L 808.79 758.206 C 799.952 755.881 782.534 752.817 774.232 758.012 L 773.53 758.5 C 771.842 756.123 772.744 749.867 772.792 746.894 z"/>
</svg>